<?xml version="1.0" encoding="UTF-8" standalone="no"?>
<svg
   xmlns:dc="http://purl.org/dc/elements/1.1/"
   xmlns:cc="http://creativecommons.org/ns#"
   xmlns:rdf="http://www.w3.org/1999/02/22-rdf-syntax-ns#"
   xmlns:svg="http://www.w3.org/2000/svg"
   xmlns="http://www.w3.org/2000/svg"
   xmlns:sodipodi="http://sodipodi.sourceforge.net/DTD/sodipodi-0.dtd"
   xmlns:inkscape="http://www.inkscape.org/namespaces/inkscape"
   version="1.0"
   width="300.000000pt"
   height="300.000000pt"
   viewBox="0 0 300.000000 300.000000"
   preserveAspectRatio="xMidYMid meet"
   id="svg847"
   sodipodi:docname="amo.svg"
   inkscape:version="0.92.4 (5da689c313, 2019-01-14)">
  <defs
     id="defs851" />
  <sodipodi:namedview
     pagecolor="#ffffff"
     bordercolor="#666666"
     borderopacity="1"
     objecttolerance="10"
     gridtolerance="10"
     guidetolerance="10"
     inkscape:pageopacity="0"
     inkscape:pageshadow="2"
     inkscape:window-width="3840"
     inkscape:window-height="2050"
     id="namedview849"
     showgrid="false"
     inkscape:zoom="2.36"
     inkscape:cx="-151.83361"
     inkscape:cy="72.305048"
     inkscape:window-x="-12"
     inkscape:window-y="-12"
     inkscape:window-maximized="1"
     inkscape:current-layer="svg847" />
  <metadata
     id="metadata841">
Created by potrace 1.10, written by Peter Selinger 2001-2011
<rdf:RDF>
  <cc:Work
     rdf:about="">
    <dc:format>image/svg+xml</dc:format>
    <dc:type
       rdf:resource="http://purl.org/dc/dcmitype/StillImage" />
  </cc:Work>
</rdf:RDF>
</metadata>
  <g
     transform="matrix(0.05,0,0,-0.05,0,300)"
     id="g845"
     style="fill:#000000;stroke:none;fill-opacity:1">
    <path
       d="m 2868,5972 c -66,-15 -164,-104 -648,-587 l -569,-569 -81,13 c -128,20 -143,48 -101,182 264,838 -972,1309 -1346,513 -256,-546 224,-1120 839,-1004 162,31 191,16 210,-101 11,-68 1,-79 -550,-631 C 314,3478 51,3199 39,3168 5,3082 10,2896 48,2817 94,2720 1101,1720 1152,1720 c 99,0 156,107 128,239 -110,519 303,971 804,880 866,-157 740,-1407 -143,-1402 h -168 l -77,-76 c -42,-42 -76,-93 -76,-113 0,-48 1107,-1157 1198,-1200 96,-46 308,-40 390,11 86,54 1188,1164 1193,1201 16,132 -52,168 -321,170 -576,4 -919,526 -676,1028 243,502 1012,506 1263,8 64,-128 78,-201 81,-423 2,-196 47,-283 147,-283 37,0 986,936 1046,1032 45,72 56,284 20,378 -13,33 -275,312 -586,624 l -563,565 36,112 c 33,106 39,112 89,103 310,-61 324,-62 436,-39 858,180 745,1427 -129,1425 -503,-2 -863,-516 -675,-965 47,-112 -17,-174 -178,-175 -25,0 -250,210 -610,568 -594,591 -595,591 -771,599 -35,2 -99,-5 -142,-15 z m 160,-84 c 18,-7 27,-20 21,-30 -6,-10 2,-18 19,-18 16,0 41,-17 56,-37 14,-21 35,-40 46,-42 11,-3 18,-13 15,-23 -3,-10 4,-18 15,-18 37,0 183,-156 156,-167 -16,-6 -11,-10 10,-11 21,-1 148,-114 283,-251 136,-137 254,-242 262,-235 8,8 10,4 3,-7 -6,-12 6,-37 28,-56 22,-19 34,-45 26,-59 -8,-13 -7,-18 1,-10 22,20 95,-21 80,-45 -6,-10 2,-19 18,-19 15,0 43,-23 62,-51 35,-54 85,-80 231,-119 173,-48 401,130 369,286 -9,41 -14,85 -11,99 2,14 -4,25 -14,25 -23,0 -31,233 -8,248 10,6 16,34 13,62 -3,27 2,50 11,50 8,0 21,23 28,51 7,28 22,45 33,39 10,-7 19,-2 19,11 0,29 115,145 178,178 42,23 47,22 35,-8 -7,-19 -4,-28 7,-21 11,7 20,26 20,42 0,17 9,25 20,18 11,-7 20,-4 20,5 0,10 11,20 25,21 14,2 63,8 110,15 47,6 85,4 85,-5 0,-9 31,-18 69,-21 70,-5 191,-65 197,-98 1,-9 13,-15 25,-12 12,3 43,-17 69,-45 26,-27 39,-50 30,-50 -10,0 -2,-11 17,-26 20,-14 37,-38 40,-55 2,-16 12,-42 22,-58 26,-42 31,-221 6,-221 -11,0 -10,-12 4,-29 27,-32 10,-151 -21,-151 -10,0 -17,-7 -16,-15 8,-46 -5,-105 -21,-105 -11,0 -15,16 -8,35 9,29 7,30 -10,6 -11,-16 -16,-37 -10,-46 6,-10 -8,-23 -32,-29 -24,-6 -40,-21 -36,-34 7,-20 -50,-91 -75,-93 -5,0 -43,-15 -85,-33 -85,-35 -206,-40 -428,-17 l -152,16 -78,-84 c -140,-153 -166,-297 -71,-406 17,-19 23,-35 14,-35 -8,0 49,-62 127,-137 79,-76 143,-148 143,-160 0,-13 7,-21 15,-19 18,5 277,-247 270,-263 -3,-6 2,-11 10,-11 23,0 116,-70 94,-71 -10,0 -1,-16 21,-35 58,-49 171,-197 159,-208 -5,-5 5,-9 21,-9 24,0 21,11 -13,51 -24,29 -1,7 52,-48 132,-138 162,-174 177,-216 8,-20 22,-31 32,-25 43,27 48,-77 5,-106 -24,-15 -43,-40 -43,-55 0,-16 -13,-28 -30,-28 -16,0 -30,-10 -30,-23 0,-29 -414,-437 -429,-422 -6,6 -11,-2 -11,-18 0,-44 -92,-124 -122,-106 -16,10 -21,6 -15,-13 11,-30 -52,-103 -71,-83 -7,6 -12,0 -12,-14 0,-13 -18,-48 -40,-76 -22,-28 -40,-40 -40,-27 0,14 -9,19 -20,12 -12,-7 -15,-21 -9,-31 6,-11 7,-19 2,-19 -5,0 -22,-5 -38,-11 -31,-12 -32,-8 -40,141 -3,56 -17,110 -33,122 -20,15 -21,26 -6,36 21,12 12,70 -15,92 -15,12 -66,122 -72,154 -3,14 -31,48 -62,75 -45,41 -49,49 -17,40 23,-7 16,2 -17,21 -31,18 -52,44 -47,57 6,14 -8,26 -31,28 -22,2 -59,20 -83,41 -46,43 -131,92 -162,96 -11,1 -51,15 -90,30 -38,15 -77,25 -85,22 -8,-2 -15,3 -15,11 0,19 -244,17 -276,-2 -13,-9 -24,-6 -24,6 0,11 -10,21 -21,21 -12,0 -17,-7 -11,-16 5,-9 -17,-26 -49,-38 -33,-13 -54,-14 -48,-4 7,10 -25,0 -70,-24 -44,-23 -81,-52 -81,-63 0,-12 -5,-16 -12,-10 -6,6 -28,-3 -48,-22 -20,-18 -68,-62 -108,-99 -40,-36 -72,-74 -72,-85 0,-10 -14,-19 -30,-19 -17,0 -28,-7 -25,-15 8,-27 -49,-145 -71,-145 -11,0 -16,-5 -10,-11 6,-6 -1,-53 -16,-103 -50,-167 -27,-465 45,-578 15,-22 21,-47 15,-54 -16,-15 92,-146 115,-139 9,3 17,-11 17,-30 0,-19 28,-51 62,-70 37,-21 58,-46 52,-63 -8,-19 1,-24 27,-17 24,6 39,-1 39,-16 0,-14 5,-20 12,-14 6,7 44,-6 84,-29 40,-22 95,-44 123,-49 27,-5 61,-19 75,-30 15,-13 56,-16 96,-8 38,7 70,5 70,-5 0,-10 22,-14 50,-9 30,6 50,0 50,-14 0,-13 -8,-18 -19,-12 -10,6 -24,2 -31,-9 -7,-12 -4,-19 7,-15 10,3 19,-4 19,-15 0,-11 -8,-18 -18,-15 -10,3 -18,-8 -18,-25 0,-16 -10,-30 -21,-30 -12,0 -35,-13 -52,-30 -16,-16 -24,-30 -17,-30 7,0 -55,-67 -138,-150 -83,-82 -162,-150 -175,-150 -13,0 -18,-6 -11,-13 19,-18 -26,-69 -48,-56 -10,6 -18,0 -18,-15 0,-37 -136,-141 -163,-124 -14,9 -18,5 -9,-8 20,-33 -48,-128 -82,-115 -15,6 -24,3 -18,-6 5,-9 -5,-29 -24,-46 -65,-58 -141,-153 -130,-164 6,-6 -13,-17 -42,-24 -28,-7 -52,-24 -52,-36 0,-13 -18,-35 -40,-49 -47,-29 -120,-1 -120,45 0,16 -20,31 -45,35 -25,4 -43,17 -41,30 3,12 -26,46 -64,75 -38,29 -67,64 -65,77 3,13 -6,22 -20,19 -14,-3 -52,33 -85,78 -33,46 -81,97 -105,114 -78,52 -216,191 -247,248 -16,30 -38,55 -50,55 -22,0 -79,50 -72,63 2,4 0,5 -4,2 -17,-10 -61,40 -51,57 6,10 -13,27 -42,38 -29,11 -58,38 -63,60 -6,22 -17,40 -25,40 -12,0 -61,87 -61,108 0,4 43,12 95,19 124,15 175,26 263,57 87,30 91,30 145,34 24,1 38,7 32,14 -6,6 26,44 72,85 46,40 86,80 90,88 3,8 15,10 25,4 10,-6 18,2 18,19 0,16 12,37 26,46 14,9 51,70 82,136 31,66 64,135 73,153 14,26 29,352 21,422 -1,8 -1,21 0,28 1,7 -9,19 -22,27 -13,8 -25,38 -27,67 -2,29 -8,53 -15,53 -11,0 -64,104 -59,116 2,3 -14,21 -34,40 -20,19 -23,25 -6,15 17,-11 0,14 -37,54 -37,40 -73,72 -80,72 -44,-5 -65,7 -55,33 6,16 5,27 -4,25 -18,-6 -168,68 -185,91 -6,8 -38,20 -70,25 -32,6 -71,15 -88,21 -16,7 -69,14 -118,18 -48,3 -94,17 -102,30 -11,17 -17,16 -26,-6 -9,-23 -134,-70 -224,-83 -49,-8 -187,-87 -250,-144 -39,-35 -88,-80 -111,-100 -22,-20 -27,-28 -10,-18 17,11 12,-2 -12,-30 -74,-85 -150,-260 -161,-371 -7,-59 -18,-103 -27,-97 -19,11 -14,-31 7,-66 9,-13 5,-45 -8,-70 -14,-25 -28,-35 -33,-21 -4,13 -19,19 -34,14 -15,-6 -44,20 -68,61 -23,39 -51,71 -63,71 -30,0 -110,77 -110,106 0,13 -11,24 -25,24 -27,0 -125,98 -125,125 0,21 -62,74 -107,91 -20,8 -30,23 -23,34 7,12 4,19 -6,15 -34,-9 -344,321 -344,367 0,35 -5,38 -28,19 -24,-19 -27,-16 -17,21 8,33 5,40 -15,28 -17,-10 -21,-8 -12,6 7,12 26,17 43,11 20,-8 29,2 29,31 0,36 376,440 425,457 8,3 14,10 14,17 -3,21 70,65 89,53 10,-6 13,3 7,20 -9,22 29,70 126,159 76,69 139,137 139,151 0,14 7,23 15,21 22,-6 265,234 265,262 0,14 8,19 18,13 21,-13 44,36 54,113 4,30 9,62 10,70 7,35 -28,146 -46,146 -10,0 -13,9 -6,20 7,11 2,20 -10,20 -12,0 -43,23 -69,51 -27,29 -55,52 -65,53 -9,1 -27,5 -41,11 -14,5 -64,0 -110,-11 -121,-29 -352,-21 -373,14 -10,15 -27,21 -38,14 -11,-7 -34,1 -51,18 -17,16 -38,30 -47,30 -39,1 -151,142 -151,192 0,29 -6,43 -13,31 -21,-34 -60,4 -74,73 -10,47 -6,64 14,64 24,1 24,3 0,18 -36,23 -20,239 27,347 8,19 22,30 31,25 9,-6 25,16 36,48 11,32 39,64 62,71 23,8 42,22 42,32 0,11 14,19 30,19 17,0 30,9 30,20 0,11 17,20 38,20 21,0 42,11 47,24 5,15 63,27 150,32 160,9 294,-24 277,-68 -6,-15 -2,-28 9,-28 10,0 19,11 20,25 0,14 13,8 30,-14 16,-21 29,-31 29,-22 0,9 36,-19 80,-61 76,-73 132,-193 108,-231 -6,-9 2,-17 17,-17 31,0 37,-228 8,-275 -8,-14 -10,-33 -4,-44 6,-10 2,-24 -10,-32 -35,-21 0,-131 68,-212 67,-79 282,-166 310,-124 16,26 108,77 128,71 8,-2 29,19 47,46 18,27 40,45 50,39 10,-7 24,5 31,25 20,54 133,165 154,151 11,-6 13,-1 5,12 -8,13 -4,23 8,23 12,0 18,7 13,16 -6,8 17,27 50,42 32,14 55,31 50,36 -16,16 91,126 110,114 10,-6 16,-2 12,8 -6,23 248,276 270,269 8,-3 15,4 15,15 0,32 66,100 98,100 16,0 24,5 17,11 -11,12 74,105 100,111 8,2 27,20 41,41 15,20 44,37 65,37 22,0 38,7 37,15 -8,45 2,51 50,33 z"
       id="path843"
       inkscape:connector-curvature="0"
       style="fill:#000000;fill-opacity:1" />
  </g>
  <path
     style="opacity:0.67386091;fill:#000202;fill-opacity:1;stroke-width:0.99999994"
     d="m 197.1443,393.04203 c -1.26465,-0.62391 -1.62163,-1.11857 -2.63447,-3.6505 -0.33325,-0.83306 -0.94991,-1.28312 -2.27733,-1.66209 -2.13046,-0.60821 -3.3034,-1.49104 -3.3034,-2.48636 0,-0.39069 -1.90678,-2.53018 -4.23729,-4.75442 -3.2637,-3.11486 -4.23728,-4.29959 -4.23728,-5.15617 0,-0.84655 -0.21205,-1.11211 -0.88798,-1.11211 -1.35035,0 -3.05727,-1.41334 -5.50928,-4.56172 -3.23679,-4.15603 -5.62149,-6.57103 -9.94302,-10.06934 -4.75649,-3.85043 -11.55049,-10.87884 -13.62669,-14.09685 -2.1075,-3.26653 -3.08661,-4.32294 -4.00661,-4.32294 -0.42625,0 -1.7365,-0.92677 -2.91168,-2.05949 -1.17518,-1.13272 -2.59546,-2.26852 -3.15618,-2.524 -0.94195,-0.42918 -2.41169,-2.58257 -2.28553,-3.34863 0.16883,-1.02517 -0.27843,-1.49519 -2.48236,-2.60867 -2.86441,-1.44717 -3.60282,-2.18994 -4.55547,-4.58233 -0.38888,-0.97661 -1.13037,-2.05301 -1.64774,-2.392 -0.9972,-0.6534 -3.64848,-5.25723 -3.64848,-6.33544 0,-0.6716 1.72234,-1.06025 8.8983,-2.00789 5.46859,-0.72217 8.59674,-1.45728 15.18408,-3.56822 3.31122,-1.06109 6.56455,-1.92926 7.22961,-1.92926 2.56764,0 3.9128,-0.51268 4.32555,-1.64858 0.22096,-0.60811 2.82787,-3.43693 5.79312,-6.28626 4.08011,-3.9206 5.58459,-5.1205 6.1858,-4.93347 0.88511,0.27534 1.51932,-0.45012 1.53018,-1.75034 0.004,-0.4661 0.78109,-1.70551 1.72711,-2.75424 1.1043,-1.22419 3.29505,-5.09215 6.11982,-10.80508 l 4.3998,-8.89831 0.46432,-4.66101 c 0.25538,-2.56356 0.567,-9.27104 0.6925,-14.9055 l 0.22819,-10.24448 -1.3071,-1.36775 c -1.28037,-1.33979 -1.86791,-2.83077 -2.36081,-5.99098 -0.13524,-0.86708 -0.71173,-2.13014 -1.28109,-2.80679 -1.08029,-1.28385 -3.59118,-6.26878 -3.59176,-7.1308 -1.8e-4,-0.27344 -0.51765,-1.11194 -1.14991,-1.86335 -0.63227,-0.75142 -1.18874,-1.63299 -1.2366,-1.95905 -0.12212,-0.83211 -3.70873,-4.95287 -5.94063,-6.82537 -1.29876,-1.08961 -2.41248,-1.63149 -3.65604,-1.77881 -1.76244,-0.2088 -1.79023,-0.23795 -1.91864,-2.01272 -0.11064,-1.52918 -0.27044,-1.80176 -1.05932,-1.80694 -1.27824,-0.008 -9.04508,-3.82386 -11.00221,-5.40486 -1.30106,-1.05103 -2.79955,-1.57392 -8.05084,-2.80931 -3.54874,-0.83485 -8.16835,-1.70829 -10.2658,-1.94098 -4.75693,-0.52773 -6.43339,-1.00543 -7.69806,-2.19353 -0.97704,-0.91788 -1.00547,-0.91993 -1.61359,-0.11605 -0.34046,0.45006 -0.62509,0.93306 -0.63251,1.07335 -0.0452,0.85571 -8.91317,4.03657 -14.04273,5.03702 -2.77679,0.54157 -7.66877,2.95322 -12.453792,6.13948 -4.410026,2.93656 -13.476907,11.13687 -13.177229,11.91782 0.123432,0.32165 -0.677415,1.77802 -1.779661,3.23636 -4.353864,5.76046 -8.078703,14.75967 -9.422072,22.76372 -0.972949,5.79703 -1.097229,6.21903 -1.924987,6.53668 -0.769606,0.29533 -0.751827,2.27526 0.03275,3.64775 0.870983,1.52363 0.775263,4.21488 -0.20722,5.82627 -0.9552,1.56665 -1.094471,1.61902 -1.971958,0.74153 -0.349576,-0.34958 -1.111203,-0.63559 -1.692504,-0.63559 -1.683924,0 -2.560708,-0.6919 -4.442733,-3.50591 -2.46606,-3.68726 -3.299293,-4.53826 -5.28917,-5.40197 -2.245313,-0.97459 -6.063911,-4.78977 -6.381021,-6.37532 -0.28475,-1.42375 -0.753767,-1.86566 -2.397373,-2.25879 -1.602449,-0.3833 -6.654086,-5.50113 -7.779791,-7.88174 -1.120063,-2.36868 -2.589887,-3.7745 -5.855171,-5.60021 -2.192418,-1.22585 -2.560649,-1.609 -2.675151,-2.78354 -0.09228,-0.9466 -0.352206,-1.36201 -0.852211,-1.36201 -1.861787,0 -14.292306,-12.4387 -20.034095,-20.04727 -1.744262,-2.31136 -2.497865,-3.68964 -2.497865,-4.56838 0,-1.55868 -0.86335,-1.9423 -2.2808898,-1.01349 l -1.078168,0.70644 0.262915,-2.21991 0.262915,-2.2199 -1.1612627,0.29145 c -0.7607585,0.19094 -1.0673239,0.13947 -0.8888872,-0.14925 0.1498064,-0.24239 1.2108791,-0.44071 2.3579393,-0.44071 1.9313654,0 2.1042624,-0.0862 2.3384654,-1.16526 0.139096,-0.64089 0.468158,-1.60771 0.731248,-2.1485 1.845396,-3.79325 24.254491,-27.62013 27.267956,-28.99315 0.519227,-0.23658 1.173767,-0.98473 1.454534,-1.66256 0.592161,-1.4296 3.551228,-3.31867 5.198429,-3.31867 0.981439,0 1.128027,-0.17246 1.128027,-1.3271 0,-2.06715 1.106262,-3.43667 9.26197,-11.46602 5.078898,-5.00021 7.792775,-7.98957 8.149911,-8.97721 0.318928,-0.88198 0.895385,-1.57105 1.425635,-1.70413 2.187149,-0.54894 15.087547,-13.22677 16.98367,-16.69066 0.58058,-1.06063 1.107936,-1.53051 1.609339,-1.43395 1.765551,0.34002 2.844958,-2.21121 3.877881,-9.16558 0.578161,-3.89256 0.579577,-4.66367 0.01305,-7.10649 -0.71064,-3.0642 -2.115178,-6.111908 -2.816682,-6.111908 -0.280983,0 -0.356551,-0.416373 -0.193479,-1.066094 0.220581,-0.878864 0.07384,-1.139754 -0.835546,-1.4855 -0.606717,-0.230673 -2.184204,-1.419576 -3.505534,-2.642012 -4.222204,-3.906191 -4.541975,-4.125068 -6.938526,-4.749288 -2.490373,-0.648661 -3.590076,-0.582611 -9.023216,0.541961 -2.470441,0.511344 -5.630843,0.703382 -11.652542,0.708068 -8.673532,0.0067 -10.895725,-0.325224 -12.709982,-1.898724 -0.638496,-0.553763 -1.586086,-0.849089 -2.724411,-0.849089 -1.313517,0 -2.126381,-0.314038 -3.285083,-1.269136 -0.846825,-0.698025 -2.368024,-1.630805 -3.380442,-2.072843 -3.733458,-1.630093 -9.679743,-9.621966 -9.679743,-13.009682 0,-1.664911 -0.510799,-2.086106 -1.659735,-1.368585 -0.725758,0.453246 -1.001772,0.383169 -1.93167,-0.490428 -1.220714,-1.146801 -2.340799,-4.432331 -2.340799,-6.866233 0,-1.44339 0.114324,-1.618009 1.059322,-1.618009 1.315391,0 1.357999,-0.681775 0.105933,-1.695017 -0.849226,-0.687241 -0.969892,-1.227055 -1.104424,-4.9408 -0.18149,-5.010023 0.525039,-10.678503 1.857612,-14.903605 1.062234,-3.367958 1.998873,-4.731764 3.249698,-4.731764 0.571751,0 1.138994,-0.756654 1.991234,-2.656137 1.169198,-2.605921 3.702656,-5.39471 4.900791,-5.39471 0.3245,0 1.128247,-0.645098 1.786104,-1.433551 0.708101,-0.848672 1.768325,-1.556199 2.598632,-1.734164 0.901158,-0.193151 1.533297,-0.644559 1.768338,-1.262765 0.368216,-0.968481 1.511713,-1.485239 3.310258,-1.495938 0.534958,-0.0032 1.425348,-0.458484 1.978645,-1.011781 1.461412,-1.461412 3.178598,-1.926629 8.923692,-2.417592 7.710746,-0.658944 15.198462,0.225399 18.361009,2.168543 1.132572,0.695879 1.382025,1.085401 1.22411,1.911471 -0.109081,0.57062 0.04055,1.364205 0.332555,1.763521 0.448881,0.61388 0.636152,0.638669 1.212335,0.160479 0.374792,-0.311052 0.681444,-0.828219 0.681444,-1.149259 0,-0.934072 0.580441,-0.687681 2.118645,0.899341 0.790584,0.815678 1.782707,1.48305 2.204711,1.48305 0.422005,0 2.449687,1.668433 4.505958,3.707628 3.100712,3.074965 4.08328,4.394517 5.758195,7.73305 1.846496,3.680542 2.000309,4.217841 1.795271,6.271293 -0.206013,2.063241 -0.143729,2.276482 0.765979,2.622352 0.752657,0.28616 1.10164,0.895999 1.454631,2.541936 0.710356,3.312284 0.584653,10.857678 -0.226207,13.578008 -0.379835,1.274306 -0.713522,3.201509 -0.741526,4.28267 -0.03305,1.276106 -0.332089,2.277318 -0.852373,2.85383 -2.090745,2.316704 0.865471,10.084738 5.671568,14.903161 2.16597,2.171526 3.731237,3.250293 7.210907,4.969678 4.10826,2.029992 8.60331,3.464144 10.90506,3.479284 0.52369,0.0034 1.68363,-0.654567 2.57763,-1.462245 1.99799,-1.805064 6.15972,-4.039967 7.52303,-4.039967 0.73754,0 1.5917,-0.741279 3.17362,-2.754237 1.19045,-1.51483 2.38541,-2.774504 2.65545,-2.79928 0.27004,-0.02479 0.87216,-0.07244 1.33803,-0.105932 0.56606,-0.04068 1.25587,-0.833979 2.07946,-2.391398 1.6811,-3.178987 7.86853,-9.322034 9.38939,-9.322034 0.99639,0 1.09236,-0.12378 0.84871,-1.094568 -0.21925,-0.87358 -0.10021,-1.140203 0.58966,-1.320606 0.47541,-0.124322 0.86438,-0.555601 0.86438,-0.958402 0,-0.926814 0.97353,-1.783322 3.38983,-2.982356 2.46563,-1.223517 3.38983,-2.057292 3.38983,-3.058178 0,-0.444504 1.29434,-2.131055 2.8763,-3.747886 2.10152,-2.147839 3.17347,-2.939699 3.97949,-2.939699 0.80816,0 1.1708,-0.26939 1.35601,-1.007339 0.59451,-2.368738 14.40005,-16.169385 17.47317,-17.466976 0.96174,-0.406086 1.39401,-0.924835 1.59087,-1.909148 0.35436,-1.771815 3.93896,-5.372208 5.69912,-5.724241 1.02147,-0.204294 1.5178,-0.672332 2.19378,-2.068715 0.4805,-0.992577 1.91813,-2.733725 3.19474,-3.869218 1.2766,-1.135493 3.55504,-3.18734 5.0632,-4.55966 2.18555,-1.988704 3.19541,-2.596808 4.97551,-2.996102 2.1725,-0.487314 2.23918,-0.546368 2.44525,-2.1658888 0.17428,-1.3694219 0.36228,-1.6427362 1.05933,-1.5399497 1.46896,0.2166129 3.17603,1.0183071 3.22684,1.5154242 0.0269,0.2630398 0.0746,0.7566109 0.10593,1.0968248 0.0314,0.3402135 0.72444,0.8090515 1.54011,1.0418625 0.86886,0.247987 2.36048,1.329403 3.60169,2.611188 1.16526,1.203343 2.54767,2.409646 3.07204,2.680673 0.54119,0.279723 0.9609,0.898532 0.97076,1.431258 0.013,0.701553 0.54139,1.184124 2.09307,1.911479 3.35687,1.573556 10.52186,9.6418 9.01244,10.1486 -0.90048,0.302347 -0.5863,0.837386 0.6356,1.082357 1.76832,0.354522 8.05167,5.856011 20.34978,17.817603 6.12353,5.955964 12.25594,11.710714 13.62759,12.788337 1.48458,1.166347 2.60754,2.412144 2.77472,3.078212 0.15445,0.615398 1.05126,1.954724 1.9929,2.976288 1.46698,1.591483 1.67967,2.057106 1.48568,3.252474 l -0.22638,1.395085 1.57576,-0.211352 c 1.28335,-0.172135 1.83349,0.0055 2.96461,0.957284 0.95096,0.800174 1.32196,1.424449 1.17667,1.979971 -0.16638,0.636241 0.1853,0.981699 1.62958,1.600796 1.19368,0.51167 2.46745,1.582496 3.61996,3.043204 2.62337,3.324894 4.89122,4.727051 10.70808,6.620534 6.6448,2.162995 8.62491,2.418415 12.49418,1.611648 4.80746,-1.002381 8.28846,-2.920055 11.9751,-6.597064 5.18009,-5.166551 5.77808,-7.249305 4.87115,-16.966127 -0.25808,-2.765046 -0.52382,-3.751635 -1.14398,-4.247169 -1.68389,-1.34553 -2.10752,-13.904619 -0.54923,-16.282869 0.37744,-0.576038 0.68139,-2.19855 0.74877,-3.996876 0.0942,-2.513426 0.26362,-3.132403 0.99836,-3.64704 0.48672,-0.340909 1.01677,-1.148647 1.1779,-1.794974 0.62447,-2.504944 1.57696,-3.968335 2.49971,-3.840527 0.67385,0.09333 1.08188,-0.28594 1.69108,-1.571901 1.05981,-2.23718 6.991,-8.123896 10.40336,-10.325354 1.4927,-0.963004 2.88375,-1.750917 3.09123,-1.750917 0.20748,0 0.24852,0.686118 0.0912,1.524707 -0.25128,1.339433 -0.18925,1.506743 0.51047,1.37687 0.53293,-0.09892 0.99691,-0.81524 1.40215,-2.164735 0.51233,-1.706107 0.7348,-1.975909 1.44374,-1.7509 0.58141,0.184534 1.05925,-0.02721 1.56024,-0.69139 0.57925,-0.767918 1.46752,-1.069443 4.48846,-1.523598 5.04149,-0.757915 8.85099,-0.742909 10.0452,0.03957 0.52387,0.343246 2.3494,0.822202 4.05674,1.064348 5.26463,0.746659 12.12336,3.997782 13.13968,6.228383 0.40544,0.889818 0.92926,1.179905 1.85528,1.027404 1.31664,-0.216832 6.32846,4.355181 6.44045,5.875282 0.0354,0.481145 0.77006,1.597413 1.63246,2.480595 0.8624,0.883183 1.96977,2.643277 2.46081,3.91132 2.54052,6.560508 2.59979,6.82862 2.64805,11.978662 0.0421,4.494268 -0.0376,5.074014 -0.77125,5.611256 -0.80393,0.588694 -0.80114,0.633322 0.16003,2.557872 1.62596,3.255683 0.77568,8.816022 -1.50719,9.85617 -0.90267,0.411284 -1.0126,0.735364 -1.0126,2.985241 0,2.740738 -0.54522,4.697687 -1.30881,4.697687 -0.33318,0 -0.39181,-0.603615 -0.18961,-1.952026 0.20387,-1.359474 0.15325,-1.865822 -0.16676,-1.668046 -0.81685,0.504843 -1.78111,2.802411 -1.64511,3.919856 0.13842,1.137339 -0.023,1.284199 -2.72785,2.482606 -1.13822,0.504296 -1.58898,0.967275 -1.58898,1.632084 0,1.020123 -1.94871,4.288598 -3.21978,5.400378 -0.77257,0.675754 -2.54222,1.404411 -8.72027,3.590576 -5.83504,2.064792 -12.92644,2.192754 -29.16164,0.526207 l -8.26272,-0.848169 -3.0797,3.309962 c -11.10676,11.937171 -13.44774,20.640951 -7.70763,28.656931 0.94962,1.32612 1.80481,2.81741 1.90044,3.31399 0.0956,0.49657 0.22754,0.9593 0.2931,1.02828 0.0656,0.069 3.27562,3.33237 7.13343,7.25199 7.0598,7.17287 10.57053,11.21403 10.57053,12.16757 0,0.28366 0.47972,0.69556 1.06605,0.91534 2.40974,0.90326 17.57509,15.79044 17.57961,17.25715 8.6e-4,0.28343 0.83522,0.85809 1.85409,1.27702 2.15931,0.88786 5.46539,3.57796 5.10798,4.15627 -0.13516,0.2187 1.35365,2.09667 3.30847,4.17326 4.0283,4.27923 8.79567,10.74956 8.79567,11.93756 0,0.58631 0.30951,0.79325 1.18644,0.79325 0.65254,0 1.38465,-0.19821 1.6269,-0.44047 0.30479,-0.30479 1.66865,0.83984 4.42797,3.71622 5.18179,5.40162 6.97727,7.62312 8.37948,10.36767 1.05878,2.07236 1.25379,2.23799 2.51708,2.1378 1.09513,-0.0869 1.46333,0.0976 1.83849,0.92096 0.8251,1.81089 0.0716,3.97093 -2.2365,6.41141 -1.16359,1.23033 -2.25914,2.77361 -2.43456,3.42953 -0.24551,0.918 -0.66966,1.27551 -1.84226,1.55283 -1.09902,0.25991 -1.66242,0.69611 -2.02278,1.56606 -0.68587,1.65585 -9.87224,11.42491 -17.74147,18.8668 -7.696,7.27808 -9.85618,9.09831 -10.79752,9.09831 -0.43284,0 -0.69788,0.34793 -0.69788,0.91616 0,1.50894 -2.0102,4.47039 -4.1431,6.10367 -1.69566,1.29846 -2.24342,1.50017 -3.58995,1.32195 l -1.58899,-0.2103 v 1.71035 c 0,1.45164 -0.27697,1.98733 -1.83113,3.54149 -1.38775,1.38774 -2.05466,1.77268 -2.75424,1.58974 -0.73851,-0.19313 -0.92309,-0.0579 -0.92309,0.67652 0,1.21747 -1.04714,3.22318 -2.83537,5.43092 -1.51644,1.87219 -2.24938,2.25188 -2.24938,1.16526 0,-0.70035 -0.74642,-0.82094 -1.62694,-0.26284 -0.34247,0.21706 -0.51055,0.91182 -0.42373,1.75148 0.13309,1.28718 0.0169,1.43568 -1.5471,1.97738 -1.52302,0.5275 -1.744,0.51319 -2.22458,-0.14404 -0.29347,-0.40135 -0.5381,-1.1223 -0.54361,-1.60212 -0.0326,-2.83283 -0.84349,-10.97385 -1.2396,-12.4449 -0.25717,-0.95503 -0.96228,-2.32435 -1.56691,-3.04292 -0.98203,-1.16708 -1.03293,-1.3839 -0.47699,-2.03198 1.51446,-1.76544 1.2169,-3.60668 -1.13613,-7.03028 -1.42297,-2.07038 -4.44455,-8.78119 -4.46089,-9.90748 -0.004,-0.29387 -1.48551,-2.08853 -3.29165,-3.98814 -2.32205,-2.44221 -3.00478,-3.38332 -2.33093,-3.2131 1.59647,0.40329 1.47753,-0.39812 -0.2088,-1.40698 -2.53558,-1.51691 -3.49841,-2.56362 -3.49841,-3.80318 0,-1.37587 -0.57287,-1.89652 -2.54237,-2.31063 -2.09235,-0.43994 -3.64465,-1.3058 -6.53771,-3.64669 -1.38483,-1.12052 -3.57888,-2.60194 -4.87568,-3.29204 -2.58074,-1.37339 -14.52521,-5.55917 -15.86353,-5.55917 -0.45887,0 -1.18038,-0.31319 -1.60335,-0.69597 -1.41137,-1.27727 -14.21666,-1.22813 -18.78922,0.0721 -0.61262,0.1742 -0.96488,-0.0289 -1.27119,-0.73283 -0.57007,-1.31014 -2.0728,-1.29758 -2.25919,0.0188 -0.19187,1.35512 -4.17432,3.22264 -6.01165,2.8191 -0.97687,-0.21456 -1.98682,0.0741 -4.35719,1.24531 -3.30177,1.63143 -6.22771,3.79885 -6.2282,4.61359 -1.6e-4,0.27435 -0.46812,0.52576 -1.0399,0.55871 -1.32209,0.0762 -2.23086,0.79648 -8.74913,6.93466 -2.93709,2.76584 -5.58306,5.61516 -5.87991,6.33183 -0.34988,0.84469 -0.93075,1.38811 -1.65135,1.5449 -0.61139,0.13302 -1.32298,0.30494 -1.58131,0.38203 -0.25834,0.0771 -0.59222,0.90636 -0.74197,1.84282 -0.384,2.40145 -3.24868,7.81402 -4.4046,8.32214 -0.74789,0.32877 -0.95153,0.76575 -0.95153,2.04187 0,0.89297 -0.46567,3.46957 -1.03483,5.72579 -3.2324,12.81371 -2.07022,29.12744 2.75614,38.6884 0.68463,1.35625 1.24479,3.04717 1.24479,3.75761 0,2.26989 4.48282,8.09293 7.05892,9.16929 1.07082,0.44742 1.43853,0.90675 1.65666,2.06947 0.20506,1.09309 0.85053,1.97565 2.40355,3.28643 4.76598,4.02257 5.34038,4.70001 5.09107,6.00423 l -0.23257,1.2166 1.87238,-0.25664 c 2.09036,-0.28651 2.74186,-0.038 2.96962,1.13285 0.10732,0.55172 0.57212,0.82913 1.51224,0.90257 0.74652,0.0583 2.6533,0.76527 4.23729,1.57102 3.35378,1.70601 6.75891,3.05641 9.44069,3.74397 1.04483,0.26788 2.85057,0.9689 4.01277,1.55783 2.00376,1.01538 2.34669,1.056 6.62804,0.78509 3.80449,-0.24074 4.55336,-0.18561 4.75902,0.35034 0.17912,0.46677 1.05808,0.66928 3.3028,0.76095 3.35031,0.13682 4.6058,1.02985 1.77565,1.26302 -1.30309,0.10736 -1.64142,0.31733 -1.75065,1.08647 -0.10429,0.73421 0.0733,0.95339 0.77258,0.95339 0.63668,0 0.86533,0.22157 0.7652,0.74152 -0.0785,0.40784 -0.37854,0.76536 -0.66667,0.79449 -0.28812,0.0292 -0.69331,0.0768 -0.90043,0.10594 -0.20711,0.0292 -0.50198,0.72148 -0.65526,1.53855 -0.22548,1.20195 -0.57832,1.61055 -1.848,2.14012 -1.76277,0.73522 -4.32354,3.02977 -4.32354,3.87404 0,1.51827 -17.06532,18.16116 -20.01852,19.52298 -1.36547,0.62967 -1.55464,0.88404 -1.35875,1.82713 0.33183,1.59755 -1.05264,3.14167 -2.81683,3.14167 -1.18639,0 -1.43544,0.18451 -1.71731,1.27229 -0.73359,2.83103 -8.29387,8.54072 -10.62959,8.02771 -1.25774,-0.27625 -1.38601,-0.11239 -0.78747,1.006 0.59064,1.10361 -0.52694,3.77807 -2.36577,5.66152 -1.28464,1.3158 -1.88206,1.63243 -2.89051,1.53198 -1.07706,-0.10729 -1.29326,0.0352 -1.41575,0.9327 -0.0833,0.61032 -1.43802,2.40633 -3.19619,4.23729 -4.02776,4.19453 -6.0358,6.72332 -6.80983,8.57583 -0.52046,1.24562 -1.0056,1.64217 -2.69587,2.20359 -2.16567,0.71932 -3.89084,2.01802 -3.89084,2.929 0,0.62672 -1.9101,2.49747 -3.25604,3.18896 -1.27458,0.65483 -3.06115,0.57984 -4.63045,-0.19437 z"
     id="path953"
     inkscape:connector-curvature="0"
     transform="scale(0.75)" />
</svg>
