<?xml version="1.0" encoding="UTF-8" standalone="no"?>
<!-- Generator: Adobe Illustrator 19.1.0, SVG Export Plug-In . SVG Version: 6.00 Build 0)  -->

<svg
   xmlns:dc="http://purl.org/dc/elements/1.1/"
   xmlns:cc="http://creativecommons.org/ns#"
   xmlns:rdf="http://www.w3.org/1999/02/22-rdf-syntax-ns#"
   xmlns:svg="http://www.w3.org/2000/svg"
   xmlns="http://www.w3.org/2000/svg"
   xmlns:sodipodi="http://sodipodi.sourceforge.net/DTD/sodipodi-0.dtd"
   xmlns:inkscape="http://www.inkscape.org/namespaces/inkscape"
   version="1.1"
   id="Layer_1"
   x="0px"
   y="0px"
   width="450px"
   height="450px"
   viewBox="0 0 450 450"
   style="enable-background:new 0 0 450 450"
   xml:space="preserve"
   sodipodi:docname="icon-link.svg"
   inkscape:version="0.92.4 (5da689c313, 2019-01-14)"><metadata
   id="metadata1291"><rdf:RDF><cc:Work
       rdf:about=""><dc:format>image/svg+xml</dc:format><dc:type
         rdf:resource="http://purl.org/dc/dcmitype/StillImage" /></cc:Work></rdf:RDF></metadata><defs
   id="defs1289" /><sodipodi:namedview
   pagecolor="#ffffff"
   bordercolor="#666666"
   borderopacity="1"
   objecttolerance="10"
   gridtolerance="10"
   guidetolerance="10"
   inkscape:pageopacity="0"
   inkscape:pageshadow="2"
   inkscape:window-width="3840"
   inkscape:window-height="2050"
   id="namedview1287"
   showgrid="false"
   inkscape:zoom="3.9893261"
   inkscape:cx="223.8"
   inkscape:cy="224.85001"
   inkscape:window-x="-12"
   inkscape:window-y="-12"
   inkscape:window-maximized="1"
   inkscape:current-layer="Layer_1" />
<g
   id="g1168">
	<path
   d="M182.9,321.4c25.5,13.2,51.4,18.2,79.6,14.5c-1.1,1.4-1.8,2.5-2.6,3.3c-23.1,23.3-46.1,46.8-69.4,69.9   c-57.1,56.5-151.4,34.5-176.6-41.7c-13.1-39.5-5.4-76.3,22.9-106.8c30.3-32.5,62-63.9,93.9-94.8c37.9-36.7,99.6-38.1,140.2-3.9   c8.1,6.8,10.2,16,8.1,26.3c-2.8,13.8-17.8,31.7-34.3,29.1c-6.6-1.1-13.3-3.3-19.2-6.4c-20.6-10.7-37.2-8.5-53.5,7.8   c-28.3,28.5-56.7,56.9-84.9,85.5c-18.8,19-16,48.7,5.9,63.3c15.5,10.3,36.4,8.3,50-5.1c12.3-12.2,24.5-24.5,36.7-36.9   C180.8,324.2,181.8,322.8,182.9,321.4z"
   id="path1054" />
	<g
   id="g1166">
		<g
   id="g1164">
			<g
   id="g1162">
				<g
   id="g1160">
					<path
   d="M85.9,201.7c-0.5,0.9-1.5,2.1-1.8,2.8C85.1,203.6,85.7,202.6,85.9,201.7z"
   id="path1056" />
					<path
   d="M273.8,206.8c-0.3,0.4-0.6,0.8-0.9,1.2c0.2-0.2,0.4-0.3,0.6-0.5L273.8,206.8z"
   id="path1058" />
					<path
   d="M273.5,207.5c0,0-0.2,0.6-0.5,1.3c-0.2,0.6-0.5,1.3-0.5,1.3c1.2-1.6,1.6-2.4,1.7-2.7C274.3,207,274,207.2,273.5,207.5z       "
   id="path1060" />
					<path
   d="M73.7,222.8c-1.5,1.8-2.9,3.7-4,5.7L73.7,222.8z"
   id="path1062" />
					<path
   d="M94.4,207.4c0.3-0.1,0.8-0.3,1.5-0.8C95.4,206.7,94.9,207,94.4,207.4z"
   id="path1064" />
					<path
   d="M28.3,409.5c-0.3-0.2-0.6-0.4-1-0.6C27.8,409.3,28.1,409.5,28.3,409.5z"
   id="path1066" />
					<path
   d="M43.1,421.8c0.6,0.5,1.2,1,1.7,1.5c0.6,0.5,1.1,0.8,1.7,1.2l0.3,0c-0.2-0.3-0.9-0.8-1.6-1.3       C44.4,422.7,43.6,422.2,43.1,421.8z"
   id="path1068" />
					<path
   d="M38.2,415.9c0,0,0.7,0.6,1.4,1.3c0.4,0.3,0.7,0.7,1,0.9c0.3,0.2,0.5,0.4,0.5,0.4C40,417.6,39.1,416.7,38.2,415.9z"
   id="path1070" />
					<path
   d="M150.4,428.8l0.2-1.1C150.2,428.3,150.2,428.6,150.4,428.8z"
   id="path1072" />
					<path
   d="M24.7,406.9c0.9,0.8,1.8,1.4,2.7,2C26.1,407.7,24.2,405.6,24.7,406.9z"
   id="path1074" />
					<path
   d="M86,201c0,0.2-0.1,0.5-0.1,0.7C86.3,201.1,86.4,200.8,86,201z"
   id="path1076" />
					<path
   d="M61.7,234.8l0.3-0.2C63,233.4,62.6,233.8,61.7,234.8z"
   id="path1078" />
					<path
   d="M183.4,214.4l-2.7,2.1c-0.8,0.8-1.7,1.6-2.5,2.3c1.1-0.8,1.9-1.4,2.6-2c0.7-0.5,1.3-0.9,1.7-1.3       C183.3,215,183.5,214.6,183.4,214.4z"
   id="path1080" />
					<path
   d="M2.5,345.7c0.6-0.8,1-0.5,1.3,0.2c0.3,0.7,0.5,2,0.8,3.3c0.2,1.3,0.5,2.7,0.8,3.7c0.3,1,0.9,1.5,1.4,1.2       c-1.5-4.8-2.6-8.5-1.3-11c0.5,1,0.7,2.1,1,3.3c0.3,1.2,0.5,2.4,0.7,3.5c0.2,1.1,0.5,2.2,0.8,3.1c0.4,0.9,0.9,1.5,1.6,1.9       c0,0-0.2-0.4-0.4-1.1c-0.3-0.6-0.5-1.5-0.8-2.4c-0.5-1.8-1.1-3.6-1.1-3.6c0.2-2.4,1-2.1,1.6-1.7c0.7,0.4,1.1,0.8,0.7-1.3       c-0.9-1.4-1.5-3.4-1.8-5.8c-0.2-2.4,0-5,0.2-7.7c0.4-2.7,0.8-5.3,1.3-7.7c0.5-2.4,0.9-4.5,1-6.2c0,0,0,0.1,0,0.4       c0,0.2,0,0.5,0,0.8c0,0.6,0,1.2,0,1.2s0.2-0.6,0.4-1.6c0.2-0.9,0.7-2.1,1.1-3.4c0.4-1.2,0.8-2.4,1.1-3.3       c0.1-0.5,0.3-0.8,0.4-1.1c0.1-0.3,0.2-0.4,0.2-0.4c0.1-0.1,0.1,0,0.2,0c-0.1-0.2-0.3-0.4-0.5-0.6c1.3-1.8,2.5-4.4,4.1-7.4       c0.4-0.8,0.7-1.6,1.1-2.4c0.3-0.8,0.8-1.7,1.2-2.5c0.4-0.9,0.8-1.8,1.2-2.7c0.2-0.5,0.4-0.9,0.6-1.4c0.2-0.5,0.4-0.9,0.6-1.4       c0-0.9,0.6-2.8,1.7-5.3c0.6-1.2,1.3-2.5,2.1-3.9c0.4-0.7,0.8-1.4,1.2-2.1c0.4-0.7,0.9-1.4,1.4-2.1c0.9-1.4,1.8-2.8,2.7-4.1       c1-1.3,1.9-2.5,2.7-3.7c0.4-0.6,0.8-1.1,1.1-1.6c0.4-0.5,0.7-1,1-1.4c0.6-0.8,1-1.5,1.2-2c-0.5,0.7-1,1.4-1.5,2.1l-0.8,1       c-0.3,0.3-0.5,0.7-0.8,1c-1.1,1.4-2.3,2.8-3.8,4.4l-1.3-1.8c2.5-3.2,3-3,3.3-2.8c0.2,0.1,0.3,0.1,0.6-0.3       c0.3-0.4,0.8-1.3,1.8-2.9c-0.8-0.2-1.7,0.2-2.5,1c-0.8,0.9-1.7,2.1-2.6,3.6c-0.4,0.7-0.9,1.4-1.3,2.2c-0.4,0.8-0.8,1.6-1.2,2.3       c-0.8,1.5-1.7,3-2.5,4.1c0.2-1.1,0.7-2.2,1.3-3.6c0.6-1.3,1.2-2.8,2.2-4.3c-0.9,1.1-1.7,2.3-2.5,3.5c-0.8,1.2-1.7,2.3-2.4,3.4       c-0.7,1.2-1.4,2.4-2.1,3.5c-0.7,1.2-1.4,2.3-1.9,3.5c-0.6,1.2-1.1,2.3-1.5,3.5c-0.2,0.6-0.5,1.1-0.7,1.7       c-0.2,0.6-0.3,1.1-0.5,1.7c-0.3,1.1-0.5,2.2-0.7,3.3c-0.2,1.1-0.3,2.1-0.2,3.2c-1.6,2.8-2.3,1-1.8-1.4       c-0.5,4.3-1.4,5.5-2.2,6.7c-0.8,1.2-1.5,2.3-1.6,5.9c-0.5-0.7-0.6-2.2-0.4-4.1c0.1-0.9,0.2-2,0.5-3.1c0.3-1.1,0.6-2.3,0.9-3.5       c0.4-1.2,0.7-2.5,1.1-3.7c0.4-1.2,0.9-2.4,1.3-3.6c0.4-1.2,0.7-2.3,1.2-3.4c0.4-1.1,0.7-2.1,1-3c3.3-4.5,6.7-9.7,10.1-15.1       c0.9-1.3,1.8-2.7,2.7-4c0.9-1.3,1.8-2.7,2.8-3.9c1.9-2.5,3.9-5.1,5.8-7.3c0.9,0.5,0.2,2.6-0.1,4.2c-0.4,1.6-0.4,2.8,1.5,1.5       c8.9-7.6,7.2-9.2,10.9-14.8c6.3-5.5,3,1.7,12.2-7.7l-4.5,6.5c7.3-3.5,4.2-6,8.6-9.7c-1.8,0.8-2.4,0.3-6.9,5.1       c-1.2-0.2,2-4.2,3.6-6l-1.1,1.1c0.9-2.9,0.5-4.6,6.8-10.1c-2.5,4.9,5.5-3.8,7.5-4.8l-1.3,1.8c3.9-4.7,8.5-9,11-12l0.1,0.5       c2.7-3.7,2.5-6.4,7.5-10.8c0.1,1.1-3.9,8.3,1,2.8c0.2,1.6-5.5,7.4-10.5,11.8c5-4.4,8.8-5.3,3.2,0.6c2.7-0.4,4.9-5.9,8.5-8.4       c-0.9,0.2-0.3-1.2-0.9-1.3c1.7,1.4,11.4-11.1,10.5-12.3l-4.8,6.5c-1.7-0.8,4.6-8.6,1.7-7.1c4.6-0.7,14.2-15.8,18.8-17.1l-3,1       c3.1-2.7,5.9-5.5,8.5-8.3c1.3-1.4,2.6-2.8,3.8-4.3c1.3-1.4,2.6-2.9,3.9-4.3c5.3-5.6,11.3-11,18.9-15.3       c-2.4,1.8-3.4,3.4-4.8,5.2c-1.5,1.8-3.5,3.6-8,6.3c6.6-4.5,8.1-4.2,8.3-3.4c0.3,0.8-0.5,2.4,1.9,1.8c2.6-1.4,4.3-2.2,5.2-3       c0.9-0.8,1.2-1.4,1.2-1.9c0-1.1-1-1.9,0.5-3.2c0,0-0.5,0.3-1.2,0.7c-0.3,0.2-0.8,0.4-1.2,0.7c-0.4,0.3-0.9,0.6-1.3,0.8       c-0.9,0.6-1.8,1.1-2.5,1.6c-0.7,0.4-1.1,0.8-1.1,0.8c3.8-4.3,11.2-7.9,19.7-10.3c4.2-1.3,8.7-2.1,13.1-3       c4.5-0.9,8.9-1.5,13.1-2.4c1.3,0.8-3.5,0.8-5.7,1.4c1.9,0.2,3.4,0.3,4.5,0.2c1.1-0.1,1.9-0.2,2.7-0.5c0.7-0.2,1.3-0.5,2.1-0.9       c0.7-0.3,1.6-0.6,2.7-0.8c1,0,2,0.1,3,0.1c1,0.1,2,0.2,3,0.3c1.9,0.2,3.7,0.6,5,0.9c1.4,0.4,2.3,0.8,2.6,1.2       c0.3,0.4-0.1,0.8-1.3,1.3c8.4,1.6-0.8-1.4,3.9-1.5l1.5,0.7c0,0,2.4-0.2,4.7-0.4c2.4-0.1,4.8-0.2,4.8-0.2       c1.8,0.6,3.7,1.3,5.5,2.1c1.8,0.8,3.6,1.6,5.2,2.6c3.2,1.8,5.8,3.8,6.9,5.4c2,0.9,3.6,1.5,4.9,2c1.3,0.5,2.3,0.8,3.1,0.9       c1.6,0.3,2.5,0.1,3.2-0.2c1.4-0.6,2.5-1.7,8.3,1.6c5.4,5.3-2.1,0.5-3.2,0.9c0,0,0.6,0.4,1.5,1c0.9,0.6,2.1,1.4,3.3,2.2       c1.2,0.8,2.3,1.7,3.2,2.3c0.9,0.7,1.4,1.1,1.4,1.1c-1.2-0.2-2.5-0.7-3.7-1.4c-1.3-0.6-2.6-1.4-3.8-2c-2.4-1.3-4.4-2-4.9-0.6       c1.2,0.3,2.2,0.7,3.2,1.1c0.9,0.4,1.8,0.8,2.6,1.3c1.6,0.9,3,1.9,4.4,3c1.4,1.1,2.9,2.3,4.5,3.9c1.6,1.6,3.3,3.6,5,6.5       l-0.1-0.9c1,1.1,2,3,2.6,5.2c0.6,2.2,0.8,4.8,0.6,7.4c-0.2,2.6-0.6,5.2-1.3,7.6c-0.7,2.4-1.6,4.5-2.3,6.3       c0.1-1.7,1-4.4,1.5-7.6c0.3-1.6,0.4-3.2,0.5-4.8c0-1.6,0-3.2-0.2-4.5c-0.1,2.1-0.4,5-1.1,8.1c-0.6,3.2-1.8,6.6-3.3,9.9       c-1.5,3.3-3.3,6.4-5.1,9.1c-1.8,2.7-3.5,4.9-4.6,6.6c-1.1,0.7-2.5,1.6-3.9,2.3c-1.5,0.7-3,1.3-4.2,1.5       c-1.2,0.3-2.1,0.3-2.2,0.1c-0.2-0.2,0.4-0.6,1.9-1.6c-2,0.8-3.6,1.3-5,1.7c-0.7,0.2-1.3,0.3-1.8,0.5c-0.5,0.1-1,0.2-1.4,0.3       c-1.7,0.4-2.6,0.8-3.4,1.1c-0.8,0.3-1.7,0.7-3.1,0.7c-1.5,0-3.7-0.3-7.3-1.6l1.1-1.7c-3.7-1.8-7.3-3.4-10.8-5.2       c-3.5-1.7-7.1-3.1-10.8-3.9c-3.7-0.8-7.3-1.4-10.9-1.4c-3.6-0.1-7.1,0.1-10.7,0.4c0,0-0.1,0.6-0.1,1.2c0,0.6-0.1,1.2-0.1,1.2       c-0.4,0-0.8,0-1.3,0c-0.5,0-0.9,0.1-1.4,0.2c-1,0.2-2.1,0.4-3.1,0.8c-2,0.6-3.8,1.3-4.6,1.3c0,0,0.4-0.3,0.9-0.7       c0.6-0.4,1.3-1,2.1-1.5c0.8-0.5,1.6-1.1,2.2-1.4c0.6-0.3,1-0.6,1-0.6c-1.7,0.1-2.9,0.6-3.8,1.2c-1,0.5-1.7,1.3-2.4,2.1       c-0.4,0.4-0.7,0.8-1.1,1.2c-0.4,0.4-0.8,0.9-1.3,1.3c-0.5,0.4-1,0.8-1.7,1.3c-0.6,0.5-1.3,1-2.2,1.5c0.3,0.3,1.9-0.4,3.4-0.9       c1.6-0.5,3.2-0.9,3.4-0.5c3-2.2,6.2-3.9,9.6-5c3.4-1.1,7-1.5,10.5-1.3c3.6,0.2,7.2,1.1,10.7,2.3c0.9,0.3,1.7,0.6,2.6,1l2.6,1.1       c0.9,0.4,1.7,0.9,2.5,1.3l2.6,1.4c3.8,2,7.8,3.6,11.9,4.9c2.1,0.6,4.2,1.1,6.3,1.5c1,0.2,2.3,0.4,3.5,0.5       c1.2,0.1,2.5,0.1,3.7,0c4.9-0.4,9.5-2.2,13.3-4.7c3.9-2.5,7.1-5.7,9.7-9.3c-1.1,0.8-2.4,1.7-2.1,0.8c1.5-1.2,3.2-3.3,4.4-5       c1.2-1.7,2.1-2.9,2.4-2.1c0,0-0.1,0.3-0.3,0.6c-0.1,0.3-0.3,0.6-0.3,0.6c2.3-4,4.6-7.8,6.4-11.7c0.4-1,0.8-2,1.1-2.9       c0.3-0.9,0.6-1.8,0.9-2.7c0.5-1.8,0.7-3.5,0.7-5c-0.2-0.5-0.4-1.2-0.5-2c-0.2-0.8-0.3-1.8-0.5-2.9c-0.4-2.1-1-4.5-1.8-6.5       c-0.8-2.1-1.8-3.7-2.5-4.5c-0.7-0.8-1.2-0.7-1.1,0.6c0,0-0.1-0.4-0.4-1c-0.2-0.6-0.5-1.4-0.9-2.2c-0.4-0.8-0.8-1.6-1.1-2.1       c-0.3-0.6-0.6-1-0.6-1c-1.2-0.4-1.8-0.2-2.5-0.1c-0.7,0-1.5,0-3.1-0.9c-2.3-2-3.3-3.1-3.3-3.6c0-0.2,0.4-0.2,0.9-0.1       c0.6,0.2,1.4,0.5,2.5,1.2c-8.9-7.6-20.2-14.2-32.4-18.3c-12.3-4.1-25.3-5.7-37.3-5.1c0,0,1.6-0.3,3.2-0.6       c1.6-0.3,3.2-0.5,3.2-0.5c-1.4-0.2-3.5-0.3-5.7-0.1c-1.1,0.1-2.2,0.1-3.3,0.3c-1.1,0.1-2.1,0.3-3.1,0.4       c-3.9,0.5-6.5,0.7-4.1-1.2c-1.5,0.3-3.1,0.6-4.7,0.9c-0.8,0.1-1.7,0.3-2.6,0.4c-0.9,0.2-1.7,0.3-2.6,0.5       c-0.9,0.2-1.8,0.3-2.7,0.5c-0.9,0.2-1.8,0.4-2.6,0.6c-1.8,0.4-3.5,0.9-5.1,1.3c-6.5,1.9-11.3,4.2-11,6       c-4.2-0.1-11,2.6-17.9,7.2c-3.4,2.3-6.9,5-10.2,8c-0.8,0.7-1.6,1.5-2.4,2.2c-0.8,0.8-1.5,1.5-2.3,2.3c-0.4,0.4-0.8,0.8-1.1,1.1       c-0.3,0.4-0.7,0.7-1,1.1c-0.7,0.7-1.4,1.4-2,2.1c3.9,0.3-8.6,9.5-10.6,13.3c-3.1-0.1,7.7-10.7,6.8-12       c-9,13.6-33.4,29.2-34.1,38.1c-1.5,1.2-1.7,1.1-1.4,0.4c-2.2,2.2-5.8,4.4-8.1,6.3c-0.6,2,4.4-2.4-0.5,3.1       c-4.3,4-3.1,0.5-5.3,1.7c-6.9,8.8-18.8,22-18.5,25c-2.7,2-6.1,3.6-3.9,0.6c-5.5,7.1-8.5,10.1-11.5,13.1c-1.5,1.5-3.1,3-5,5.1       c-0.9,1.1-2,2.2-3.1,3.6c-1.1,1.4-2.2,3.1-3.6,5c3.9-5.1,0-4.2,6.9-10.7c-1.8,0.9-4,2.6-6.2,5.1c-2.1,2.5-4.5,5.6-6.6,9.2       c-4.3,7-8.2,15.4-11.6,22.2c0,0,0,0.4-0.1,1c0,0.6,0,1.4,0,2.2c0,1.6,0,3.2,0,3.2c-0.7,2.2-1.1,3.9-1.5,5       c-0.4,1.2-0.9,1.8-1.2,2c-0.7,0.3-1-1.2-0.5-4.5c-0.6,1.9-1.2,3.7-1.7,5.4c-0.5,1.7-0.8,3.4-1.1,5c-0.7,3.2-0.9,6.1-1.1,8.9       c-0.1,1.4-0.1,2.8-0.1,4.1c0,1.4,0,2.7,0,4.1c0,1.4,0.2,2.7,0.2,4.2c0.1,1.4,0.1,2.9,0.2,4.4C0.5,339.6,0,339.1,0,337       c0,0,0,0.3,0,0.8c0,0.5,0,1.2,0.1,2c0.2,1.6,0.4,3.8,0.6,6c0.3,2.2,0.7,4.3,0.9,5.9c0.3,1.6,0.5,2.7,0.5,2.7       c0.9,1.6,3.4,7.4,4.4,5.8C4.9,358.4,3.1,355.1,2.5,345.7z"
   id="path1082" />
					<path
   d="M6.5,360.2c0.1,0.1,0.2,0.2,0.3,0.4l-0.2-0.6C6.7,360,6.6,360.1,6.5,360.2z"
   id="path1084" />
					<path
   d="M68.5,233.4c-1.5,0.8-2.6,1.5-3.4,2.2C65.8,235.3,66.8,234.7,68.5,233.4z"
   id="path1086" />
					<path
   d="M125.7,441.5c-0.6-0.7-1.5-1-2.6-1c-1.1,0-2.5,0.1-4.1,0.4c-0.8,0.1-1.6,0.3-2.4,0.5c-0.8,0.1-1.7,0.2-2.6,0.3       c-0.9,0.1-1.8,0.1-2.7,0.1c-0.9,0-1.8,0-2.7-0.2c0.9,0,1.6,0,2.2-0.1c0.6-0.1,1.1-0.2,1.5-0.3c0.8-0.2,1.2-0.5,1.3-0.9       c0.3-0.6-0.3-1.3-0.7-1.8c-1,0.5-2,0.9-2.9,1.1c-0.9,0.2-1.7,0.3-2.5,0.3c-1.6,0-3.1-0.3-4.7-0.8c-1.7-0.5-3.5-1.2-5.9-1.8       c-1.2-0.4-2.5-0.8-3.9-1.1c-0.7-0.2-1.5-0.3-2.3-0.5c-0.8-0.2-1.7-0.4-2.6-0.6c0-0.7,1.8-0.6,3.7-0.6c1.9,0,4,0,4.5-0.7       c-1-0.1-2.1-0.2-3.2-0.3c-0.6-0.1-1.1-0.1-1.7-0.2c-0.6-0.1-1.1-0.2-1.7-0.3c-1.2-0.2-2.3-0.4-3.5-0.6       c-1.2-0.2-2.3-0.5-3.4-0.7c-1.1-0.2-2.1-0.4-3.1-0.6c-1-0.1-1.9-0.4-2.7-0.5c-1.6-0.2-2.9-0.2-3.5,0.1       c-0.8-0.3-1.6-0.7-2.4-1.1c-0.8-0.4-1.5-0.7-2.3-1.1c-0.7-0.4-1.5-0.7-2.2-1.1c-0.7-0.4-1.4-0.8-2-1.2       c-1.3-0.8-2.6-1.5-3.8-2.3c-1.2-0.8-2.3-1.6-3.4-2.4c-0.6-0.4-1.1-0.7-1.6-1.1c-0.5-0.4-1-0.8-1.5-1.2c-1-0.8-2-1.5-2.9-2.2       c-1.9-1.4-3.5-2.9-5.2-4.2c4.2,2.9,4.9,2.8,5.5,2.3c0.5-0.5,0.9-1.2,4.4,0.1c-1.2-0.5-2.6-1-4.1-1.8c-1.4-0.8-3-1.6-4.7-2.6       c-1.6-1-3.3-2.2-5.1-3.3c-1.8-1.2-3.5-2.6-5.3-4c-1.8-1.4-3.5-3-5.3-4.6c-1.7-1.6-3.3-3.3-5-4.9c-1.6-1.7-3.1-3.4-4.6-5.1       c-0.8-0.8-1.4-1.7-2.1-2.5c-0.7-0.8-1.3-1.6-2-2.4c1.4-2.9,1.3-3.5,4.2-2.9c-0.2-0.5-0.4-1-0.6-1.4c-0.2-0.5-0.3-0.9-0.4-1.3       c-0.3-0.8-0.6-1.5-0.8-2.1c-0.5-1.2-0.9-2.1-1.3-2.8c-0.7-1.4-1.2-1.8-1.7-2.2c-0.5-0.4-1.1-0.8-1.8-2       c-0.4-0.6-0.8-1.5-1.2-2.7c-0.4-1.2-0.8-2.8-1.3-4.7c0,0,0.4,1.9,0.9,3.7c0.2,0.9,0.4,1.9,0.7,2.5c0.2,0.7,0.3,1.1,0.3,1.1       c-0.4-0.9-0.9-1.6-1.2-2.3c-0.4-0.7-0.7-1.3-1-1.8c-0.7-1-1.3-1.7-2-2.3c-1.3-1.1-2.5-1.5-3.6-2.6c0,0,0.1,0.3,0.2,0.8       c0.2,0.5,0.4,1.3,0.7,2.2c0.3,0.9,0.6,1.9,1,3.1c0.4,1.1,0.7,2.3,1.2,3.5c0.9,2.3,1.8,4.7,2.5,6.4c0.8,1.7,1.3,2.9,1.3,2.9       c-0.8,0.3-2.6-2.5-3.9-5.8c-0.7-1.7-1.5-3.5-2.1-5.1c-0.6-1.6-1-3-1.4-3.9c-1.9-2.6-1.5,0.1-0.8,3.3c0.2,0.8,0.3,1.6,0.5,2.4       c0.2,0.8,0.4,1.5,0.5,2.1c0.2,1.2,0.2,1.9-0.4,1.5c1.2,1.2,2.3,3.7,3.7,6.5c0.7,1.4,1.4,2.8,2.1,4.2c0.8,1.4,1.5,2.6,2.3,3.7       l-0.4,1.3c0.9,2.3,2,4.2,3.1,5.8c0.6,0.8,1.1,1.6,1.7,2.4c0.6,0.8,1.2,1.4,1.8,2.1c1.2,1.4,2.5,2.7,3.8,4.1       c1.3,1.4,2.7,2.8,4.1,4.5c0.3,0.8,0.2,1,0,1c1.4,0.8,2.9,1.5,4.5,2.5c0.8,0.5,1.6,1.1,2.5,1.7c0.9,0.6,1.9,1.3,2.9,2.2l-3-2.7       c1.7,0.9,3.9,2.2,6,3.6c2.2,1.3,4.5,2.5,6.2,3.4c3.7,1.6,5.4,1.6,1.6-2.7c0,0,0.1,0.1,0.2,0.1c0.1,0.1,0.3,0.2,0.5,0.4       c0.4,0.3,1,0.8,1.7,1.4c1.4,1.1,3.3,2.7,5.4,4.1c1,0.7,2,1.4,3,2.1c1,0.6,1.9,1.2,2.7,1.6c1.6,1,2.6,1.6,2.6,1.6       c-1.5,0.5-3.6,1.1-6.7,0.9c-1.5-0.1-3.2-0.6-5.3-1.4c-2-0.7-4.2-2-6.7-3.8l-1.8,0c1.6,1.6,3.8,3.4,6.2,4.8       c1.2,0.7,2.4,1.3,3.6,1.9c0.6,0.3,1.2,0.6,1.8,0.8c0.6,0.2,1.2,0.4,1.7,0.6c4.4,1.4,7.3,1.5,5.2-0.9c5.3-0.6,12,2.7,19.9,5.4       c2,0.7,4,1.3,6,2c2,0.6,4.2,1.1,6.2,1.6c4.2,0.8,8.3,1.2,12,0.8c0.5,0.8-1.3,1.3-3.7,1.6c-2.4,0.3-5.4,0.2-7.3,0.5       c-4.5-0.7-7.7-1.3-7.7-2.7c-2.3-0.5-4.1-0.8-5.3-0.9c-1.3-0.2-2-0.2-2.5-0.1c-1,0.2-0.8,0.9-0.6,1.5c0.2,0.6,0.3,1.2-1,1.1       c-0.6,0-1.6-0.2-3-0.7c-0.7-0.2-1.6-0.5-2.6-0.9c-1-0.4-2.1-0.9-3.4-1.4c-0.6-0.3-1.1-0.6-1.5-0.8c-0.4-0.2-0.6-0.4-0.8-0.6       c-0.3-0.3-0.3-0.4,0-0.4c0.3,0,0.8,0.1,1.4,0.2c0.6,0.1,1.3,0.2,2,0.3c1.3,0.2,2.5,0.4,2.4,0.2c0-0.1-0.4-0.4-1.2-0.8       c-0.4-0.2-0.9-0.4-1.5-0.7c-0.6-0.3-1.4-0.6-2.3-1.1c0,0-3.1-0.2-6.1-0.5c-3-0.4-6.2-0.9-6.2-0.9c8.9,5,17.8,7.8,25.7,9.6       c11,2.5,21.4,3.4,30.6,3.3c9.2,0,17.3-1,23.9-2.1c1.7-0.3,3.2-0.7,4.7-1c1.5-0.3,2.9-0.6,4.1-0.9c2.5-0.7,4.7-1.2,6.5-1.7       c3.5-1.1,5.4-1.7,5.4-1.7c6.1-2.7,12.1-5.6,17.7-9.3c2.9-1.7,5.5-3.8,8.2-5.7c1.3-1,2.6-2.1,3.9-3.1c1.3-1.1,2.6-2.1,3.8-3.2       c5-4.6,9.1-9,13.5-13.4l13.1-13.4l26.1-26.7l17.2-17.6c0.9-0.9,1.9-1.8,2.6-2.8l2.1-2.6l4-4.9l2-2.5c0.7-0.8,1.4-1.8,2.1-2.8       c1.9-2.3,1.7-2.9,2.2-4.1l-8.1,0.9c-2.8,0.3-5.5,0.6-8.2,0.9l-4.1,0.4l-2,0.2l-1,0.1l-0.9,0l-7.5,0.3c-1.2,0-2.4,0-3.6-0.1       l-2.5-0.1c-1.4,0-2.8-0.2-4.2-0.3c-1.4-0.1-2.8-0.3-4.2-0.4l-2.1-0.2l-2.1-0.3c-9.1-1.2-15.2-2.9-20-4       c-1.2-0.2-2.3-0.5-3.4-0.6c-1.1-0.2-2.1-0.3-3.2-0.4c-2-0.2-4.1-0.1-6.2,0.1c1.6,1.2,5.2,2.8,7.9,4c0.7,0.3,1.3,0.6,1.8,0.8       c0.5,0.2,0.9,0.5,1.2,0.6c0.5,0.4,0.4,0.6-0.7,0.7c2.5-0.9,9.6,0.7,19.3,2.7c0.4,0.9-1.9,0.6-4,0.2c-2.1-0.4-3.9-1-2.7-0.5       c0,0,0.5,0.1,0.9,0.3c0.5,0.1,0.9,0.3,0.9,0.3c-1.2,0.6-3,0.7-6.1,0c5.1,2.7,13.2,4.9,21.1,5.4c2,0.1,3.9,0.2,5.8,0.1       c1,0,1.6-0.1,2.4-0.1c0.7,0,1.4-0.2,2.2-0.3c2.9-0.4,6-1.1,9.1-1.9c1.7,0.3,1.8,0.6,1.1,1c-0.7,0.3-2.3,0.8-4,1.1       c-1.7,0.3-3.6,0.7-5.2,0.9c-1.6,0.3-3,0.6-3.8,0.8c4.2,0.4,7.6,0.4,10.6,0.2c0.4,0,0.7-0.1,1.1-0.1l0.3,0l0.1,0l0.1,0l-0.1,0.1       l-0.4,0.5c-0.5,0.7-1.1,1.3-1.7,1.8c-1.1,1.1-2.3,2.2-3.4,3.2c-1,1-2.1,2-3.1,3c-1.6,1.6-3.2,3.2-4.8,4.8       c-7.7,7.7-15.6,15.6-24.7,24.7c1.6,2.4-1.1,3.6-2.9,8.2l-2.7,1.2c1.4-0.6-0.5,4,4.5-0.2c-7.4,5.9-10.6,10.5-13.1,14.9       c-1.2,2.2-2.2,4.3-3.5,6.6c-0.6,1.1-1.3,2.2-2.1,3.4c-0.8,1.2-1.8,2.4-3,3.6l-0.3-1.7c-1,1-1.9,1.8-2.7,2.6       c-0.9,0.8-1.7,1.5-2.5,2.1c-1.5,1.3-2.8,2.5-4.2,3.5c-1.3,1-2.6,2.1-4.1,3.2c-0.4,0.3-0.7,0.6-1.1,0.9       c-0.4,0.3-0.8,0.6-1.2,0.9c-0.8,0.6-1.7,1.3-2.7,2c-1,0.4-1.9,0.8-2.6,1c-0.7,0.2-1.3,0.4-1.7,0.5c-0.8,0.2-1,0.1-0.8-0.1       c0.2-0.2,0.8-0.6,1.6-1.2c0.9-0.5,1.9-1.3,3-2c1.1-0.8,2.3-1.6,3.5-2.4c1.1-0.9,2.1-1.7,2.9-2.5c1.5-1.5,2.2-2.6,0.7-2.6       l-3.7,3.4c1.5-2.8,2.7-6.5,6.1-10.7c-5.4,6.1-10.5,9-15.7,11.7c-2.7,1.2-5.4,2.6-8.4,3.9c-1.5,0.7-3.1,1.5-4.8,2.2       c-0.9,0.4-1.8,0.8-2.7,1.2c-0.5,0.2-0.9,0.4-1.4,0.7c-0.5,0.2-1,0.4-1.5,0.6c0.2-0.3,0.6-0.6,1.1-1c0.5-0.4,1.2-0.9,2-1.3       c1.6-1,3.6-2,5.6-3.2c4-2.3,8.1-5,9.9-6.1c-1.3,0.7-2.8,1.5-4.3,2.4c-1.5,0.9-3.2,1.7-4.7,2.5c-3,1.5-5.6,2.3-6,1.7l-0.4,2.3       c-2.4,1-3.5,1.2-4,1.2c-0.4-0.1-0.2-0.4,0.3-0.9c0.9-0.9,2.5-2.5,0.8-2.6c-2.8,0.9-4.9,1.7-6.5,2.4c-1.6,0.6-2.8,1.1-3.5,1.7       c-1.5,1-1.6,1.9-1.6,2.8c0,0.9,0.2,1.8-1,2.8c-0.6,0.5-1.5,1-2.9,1.5c-0.7,0.3-1.5,0.6-2.5,0.8       C128.1,441.1,127,441.3,125.7,441.5z"
   id="path1088" />
					<path
   d="M32.5,265.4c-1.1,1.1-1.9,2.2-2.7,3.3c-0.8,1.1-1.5,2.1-2.1,3.1c0.8-1,1.6-2.1,2.4-3.2       C30.9,267.6,31.7,266.5,32.5,265.4z"
   id="path1090" />
					<path
   d="M13.8,310.2c0.2,0.3,0.4,0.6,0.5,1C14.3,310.4,14.2,310,13.8,310.2z"
   id="path1092" />
					<path
   d="M15.7,315.3c-1.1,1-0.6-1.9-1.4-4.1C14.4,314.4,13.1,322,15.7,315.3z"
   id="path1094" />
					<path
   d="M183.1,330.6c0.1-0.2,0.2-0.4,0.4-0.7c0.1-0.1,0.2-0.3,0.3-0.4c0.1-0.2,0.3-0.4,0.5-0.6c0.6-0.9,1.2-1.8,1.6-2.6       c0.4-0.8,0.7-1.3,0.8-1.7c0.1-0.4,0.1-0.6-0.2-0.3c0,0-0.3,0.5-0.8,1.2c-0.5,0.7-1.2,1.8-2.2,3.1c-1.6,1.9-3.2,3.7-3.2,3.7       L183.1,330.6z"
   id="path1096" />
					<path
   d="M167.9,342.7l-7.2,6.1l-2.5,6.4C165.3,348,160.8,349.9,167.9,342.7z"
   id="path1098" />
					<path
   d="M148.1,360.4l1-2C148,360,147.8,360.4,148.1,360.4z"
   id="path1100" />
					<path
   d="M148.7,361.5l-1.2,4l7.6-9.8l-3.6,3.1c-0.5-0.5-2.9,1.5-3.4,1.6l-2.2,4.3C146.6,363.7,147.9,361.9,148.7,361.5z"
   id="path1102" />
					<path
   d="M140.6,368.9c0.4,0,0.8-0.1,1.1-0.1C141.6,368.6,141.2,368.7,140.6,368.9z"
   id="path1104" />
					<path
   d="M116.5,373.7c1.2,0.3,0.6,0.8-0.4,1.3c-1,0.6-2.5,0.9-2.9,1.4c2.5,0.3,4.4,0.1,6-0.2c0.8-0.2,1.5-0.4,2.1-0.6       c0.6-0.2,1.2-0.4,1.8-0.7c0.6-0.3,1.1-0.5,1.7-0.8c0.3-0.1,0.6-0.2,0.9-0.4c0.3-0.1,0.6-0.3,0.9-0.4c0.6-0.3,1.3-0.5,2.2-0.8       c0.8-0.3,1.7-0.6,2.7-0.9c-2.9,1.7-4.1,2.2-4.2,2.5c-0.1,0.2,1.1,0.1,2.8-0.5c0.8-0.3,1.8-0.6,2.8-1c1-0.4,2-0.9,3-1.3       c1.9-1,3.8-1.9,4.8-2.4c-0.4,0-0.8,0.1-1.3,0.1c-0.5,0.1-1,0.1-1.5,0.2c-1.1,0.2-2.2,0.6-3.6,0.9c-0.7,0.2-1.4,0.4-2.2,0.6       c-0.8,0.2-1.6,0.4-2.5,0.7c-0.9,0.3-1.9,0.5-2.9,0.7c-0.5,0.1-1,0.3-1.6,0.4c-0.6,0.1-1.1,0.2-1.7,0.3l-0.8,1.5       c-2.6,0.5-3.2,0.3-3.6,0.1C118.5,374.2,118.3,373.8,116.5,373.7z"
   id="path1106" />
					<path
   d="M74.8,349.4c0,0,0.3,0.4,0.7,1.1c0.4,0.7,1.1,1.4,1.8,2.2c0.7,0.8,1.3,1.5,1.8,2.1c0.6,0.5,0.9,0.9,0.9,0.9       c0,0.4,0.4,1.3,1,2.6c0.3,0.6,0.7,1.2,1.2,1.9c0.5,0.7,0.9,1.3,1.4,2c0.4,0.7,1,1.3,1.4,1.9c0.5,0.6,0.9,1.1,1.2,1.6       c0.6,1,0.9,1.7,0.5,2c1.9,1.3,3.2,1.9,4.3,2.3c1.2,0.4,2.3,0.7,4,1.4c1.3,1.2,2.5,2.3,4,3c0.7,0.3,1.5,0.7,2.5,0.9       c0.9,0.2,1.9,0.2,3.1,0.2c-4.6-1.5-7.3-3.3-9.4-4.5c-1.9-1.4-3.2-2.4-4.2-3.4c-0.5-0.5-1.1-1-1.6-1.5c-0.3-0.3-0.6-0.5-0.9-0.8       c-0.3-0.3-0.6-0.7-0.9-1c-0.7-0.7-1.5-1.6-2.4-2.6c-0.4-0.6-0.9-1.2-1.4-1.8c-0.3-0.3-0.5-0.7-0.8-1c-0.3-0.3-0.6-0.7-0.8-1.2       c0.5,0.1,1.7,1.6,2.9,3.1c0,0-0.4-0.5-0.9-1.3c-0.3-0.4-0.6-0.9-0.9-1.3c-0.4-0.5-0.6-1.1-0.9-1.6c-0.6-1.1-1.2-2.2-1.6-3.1       c-0.3-0.9-0.6-1.5-0.6-1.5c-0.6,0.1-1.5-0.6-2.4-1.5c-0.8-1-1.6-2.3-2.2-3.2c-0.3-0.5-0.6-0.9-0.8-1.2       c-0.2-0.3-0.4-0.4-0.5-0.3c-0.1,0.1-0.2,0.4-0.1,1.1C74.3,347.2,74.5,348.1,74.8,349.4z"
   id="path1108" />
					<path
   d="M73.2,333.7c0.1,2.1,0.3,4,0.8,5.5c0.4,1.5,0.8,2.7,1.4,3.4c1,1.5,1.8,1.3,1.9-0.7c0,0-0.1-0.2-0.2-0.7       c-0.1-0.4-0.3-1.1-0.4-1.8c-0.2-0.8-0.5-1.7-0.6-2.6c-0.1-1-0.3-2-0.4-3.1c-0.1-0.5-0.1-1.1-0.1-1.6c0-0.5,0-1,0-1.5       c0-1-0.1-2,0.1-2.8c0.2-1.6,0.3-2.7,0.3-2.7C74.5,330,75.1,336.3,73.2,333.7z"
   id="path1110" />
					<path
   d="M75.1,321.5c0.2-0.4,0.5-0.7,0.8-1.2c0.1-0.2,0.3-0.4,0.4-0.6c0.2-0.2,0.3-0.4,0.5-0.6c0.7-0.9,1.4-1.8,2.1-2.8       c1.5-2,2.7-4.3,3.7-7.1c-0.6,1-1.2,1.7-1.7,2.4c-0.4,0.7-0.8,1.2-1.1,1.6c-0.7,0.8-1.2,1.2-1.8,1.7c-0.6,0.4-0.9,0.9-1.4,1.9       C76,317.7,75.3,319.1,75.1,321.5z"
   id="path1112" />
					<path
   d="M114,277.5L101.8,288c-3.9,0.4,4.9-6,7.5-10.3c-10,9.3-6.3,6.8-12.5,15.2c-2.9,2.7-6.2,7.9-9,11.6       C101.1,288.4,106.1,291.9,114,277.5z"
   id="path1114" />
					<polygon
   points="89.6,298.5 89.1,300.5 93.9,294.5      "
   id="polygon1116" />
					<path
   d="M142.7,252.4c8.9-4.8,11.8-14.3,20.5-21.2c-0.7,0.9,0.1,0.5-1.3,2.4l6.3-6.8l0.8,0.2c-0.8-0.4,0.4-2.5,2-4.9       c1.6-2.4,3.7-5.2,4.8-7c-4.2,2.5-4.6,3.8-5,4.9c-0.4,1.1-0.7,2.1-4.3,4.4c0.9-2,1-3.9,1.9-5.7c-3.4,4.7-3.7,6.4-4.7,8.9       c-4.2,4.5-3.6,2.5-4.4,2.4c-4.1,5.6-2.4,7.5-10.2,14.6c-5.9,3.7,1.1-4.5-6.6,4.1c6-2.1-8.6,8-10.4,12.4       c-6.5,5.7-11.6,8.5-11.1,6.5c1.7,1.4-2.3,8.1-6.5,13.1l9-11.6l5.3-1.7c4.8-6.5,9.1-10.5,14.8-15.9L142.7,252.4z"
   id="path1118" />
					<path
   d="M168.4,218.7c0.6-0.8,1.1-1.6,1.9-2.6C169.3,217,168.8,217.8,168.4,218.7z"
   id="path1120" />
					<polygon
   points="118.6,268.8 120.7,265.9 118.5,267.1      "
   id="polygon1122" />
					<path
   d="M172.6,212.1c-1.6,1.3-1.5,2.5,0,1.1c0,0,0.1-0.2,0.2-0.5c0.2-0.3,0.4-0.6,0.6-1c0.4-0.7,0.8-1.5,0.8-1.5L172.6,212.1z       "
   id="path1124" />
					<path
   d="M180.9,207.9c0,0,1.3-0.4,2.5-0.7c1.3-0.2,2.6-0.5,2.6-0.5s0.1-0.2,0.3-0.4c0.2-0.2,0.5-0.5,0.8-0.8       c0.6-0.6,1.2-1.1,1.2-1.1s-0.5,0.2-1.2,0.4c-0.8,0.2-1.7,0.7-2.6,1.1c-0.5,0.2-0.9,0.4-1.4,0.6c-0.4,0.2-0.8,0.5-1.2,0.6       C181.4,207.6,180.9,207.9,180.9,207.9z"
   id="path1126" />
					<path
   d="M222.2,140.2c5.9,2.1,5.7,0.3,7-0.6c-4.7-1.3-4.9-0.9-4.6-0.4C224.8,139.9,225.4,140.6,222.2,140.2z"
   id="path1128" />
					<path
   d="M115.1,185.8c5.9-4.1,9.3-9.9,14.3-14.7C124.3,174.9,118.6,181.2,115.1,185.8z"
   id="path1130" />
					<path
   d="M81.9,227.2c0.8-1.6,2.3-3.6-0.5-1l2.6-7C76,225.6,80.7,226.5,81.9,227.2z"
   id="path1132" />
					<path
   d="M41.1,270.5c0,0,1.3-1.9,2.5-3.8c1.4-2,2.9-3.9,2.9-3.9l-3.5,3.6c0.8-2.6,1.6-4.3,3.3-7.7c-1.1,1.4-2.2,2.9-3.1,4.2       c-0.9,1.4-1.8,2.6-2.2,3.7C40,268.7,39.8,270.2,41.1,270.5z"
   id="path1134" />
					<path
   d="M52,251.9c-0.7,0.8-1.5,1.8-2.3,2.7C50.6,254.1,51.4,253.9,52,251.9z"
   id="path1136" />
					<path
   d="M47,257.4c-0.2,0.5-0.4,0.8-0.6,1.2c1.1-1.4,2.2-2.7,3.2-4C48.9,255,48,255.6,47,257.4z"
   id="path1138" />
					<path
   d="M35.7,274.7c0,0-0.6,0.8-1.5,2c-0.9,1.2-1.9,2.9-2.9,4.5c-1.1,1.6-2,3.3-2.7,4.6c-0.7,1.3-1.2,2.1-1.2,2.1       s0.9-1.2,1.7-2.4c0.4-0.6,0.9-1.2,1.2-1.6c0.3-0.4,0.5-0.7,0.5-0.7c-0.4-1,0.8-2.4,2.1-3.8C34.2,277.8,35.7,276.3,35.7,274.7z"
   id="path1140" />
					<path
   d="M16.4,351.5l-1.4,2c0.5,2.5,1.2,5.2,2.3,7.7c0.5,1.3,1.1,2.6,1.6,3.8c0.6,1.3,1.2,2.4,1.8,3.6c0.6,1.2,1.1,2.3,1.6,3.4       c0.6,1.1,1.1,2.1,1.5,3.1c0.4,1,0.8,2,1,2.9c0.3,0.9,0.4,1.8,0.4,2.6c-0.5-2.2,0.9-0.6,1.9,0.2c0.5,0.4,0.8,0.6,0.7,0       c0-0.3-0.2-0.8-0.5-1.5c-0.3-0.7-0.8-1.7-1.3-3.1c-0.9-0.9-1.9-2.5-3-4.4c-1-1.9-2-4.3-3-6.7c-0.8-2.5-1.7-5-2.3-7.5       C17.2,355.5,16.7,353.3,16.4,351.5z"
   id="path1142" />
					<path
   d="M27.3,387.7c-1.4-1.2-0.4,1.2-0.1,2.6c0.8,1.7,2.1,3.2,3.1,4c0.9,0.8,1.6,1,1.3,0c-1.9-0.5-2.1-1.6-2.4-2.8       C29.1,390.3,29,388.9,27.3,387.7z"
   id="path1144" />
					<path
   d="M60.4,421.3c-1.3-0.8-2.8-1.7-3.6-2.1c-0.8-0.4-0.9-0.2,0.8,1.2c1.9,1.2,3.3,1.9,4.4,2.3c1.1,0.3,1.9,0.4,2.5,0.4       c1.3-0.1,2.2-0.5,4.4,0c-1.5-1.1-3-2-4.4-2.6c-0.4-0.2-0.7-0.3-1-0.4c-0.3-0.1-0.6-0.3-0.9-0.4c-0.6-0.2-1.2-0.4-1.6-0.5       C59.1,418.6,58.3,419.3,60.4,421.3z"
   id="path1146" />
					<path
   d="M130.2,449.6c-0.7-0.7-3-0.8-5.4-0.6c-1.2,0.1-2.4,0.2-3.4,0.3c-1,0.1-1.9,0.3-2.3,0.4c1.3-0.2,3.2-0.2,5.2-0.2       C126.3,449.4,128.4,449.5,130.2,449.6z"
   id="path1148" />
					<path
   d="M130,436.1c0,0-0.6,0-1.3,0c-0.6,0-1.3,0-1.3,0s-0.7,0.7-1.4,1.4c-0.7,0.7-1.4,1.4-1.4,1.4s1.3-0.7,2.7-1.3       C128.7,436.9,130,436.1,130,436.1z"
   id="path1150" />
					<path
   d="M178.2,413.5c0,0,1.1-1.4,2.1-2.8c0.3-0.3,0.5-0.7,0.8-1c0.2-0.3,0.4-0.7,0.6-0.9c0.4-0.5,0.6-0.9,0.6-0.9       s-0.4,0.4-1.1,1.1c-0.7,0.7-1.6,1.4-2.6,2.3c-0.9,0.8-1.9,1.6-2.6,2.2c-0.4,0.3-0.7,0.6-0.9,0.7c-0.2,0.2-0.3,0.3-0.3,0.3       s0.2-0.1,0.5-0.1c0.3-0.1,0.8-0.2,1.2-0.3C177.4,413.7,178.2,413.5,178.2,413.5z"
   id="path1152" />
					<path
   d="M186.3,407c0,0,0.4-0.4,1-1c0.6-0.6,1.4-1.5,2.2-2.3c1.6-1.7,3.3-3.4,3.3-3.4l-2.8,1.9c-1.8,1.4-2.2,2.1-2.4,2.7       C187.4,405.4,187.4,406,186.3,407z"
   id="path1154" />
					<path
   d="M205.9,386.9c-0.7,1-1.4,1.3-2.1,1.6l-5.3,6.8L205.9,386.9z"
   id="path1156" />
					<path
   d="M193.2,320.5c1.3-0.3-0.1-1.1-2-2c-1.9-0.9-4.4-2-5.4-2.7c-0.3,0.1,0.5,1.2,1.9,2.3       C189.1,319.3,191.2,320.4,193.2,320.5z"
   id="path1158" />
				</g>
			</g>
		</g>
	</g>
</g>
<g
   id="g1284"
   style="fill:#aa0000">
	<path
   d="m 265,128.6 c -25.4,-13.2 -51.3,-18.1 -79.7,-14.6 1.4,-1.6 2.2,-2.7 3.1,-3.7 23,-23.2 45.7,-46.7 69.1,-69.5 30.6,-29.7 67.1,-39.3 107.7,-26.4 41.4,13.2 66,43 73.1,85.6 5.7,34 -3.6,64.8 -27.6,89.8 -30.4,31.8 -61.4,63 -92.9,93.7 -37.7,36.7 -97.8,38.9 -139,6.1 -9.5,-7.6 -12.5,-17.3 -9.8,-28.9 4,-16.9 19.2,-29.8 34.6,-27.9 7,0.8 14,4 20.5,7.3 15.1,7.6 29.7,7.9 43.9,-1.7 2.1,-1.4 3.9,-3.1 5.7,-4.9 29,-29.2 58.1,-58.3 87,-87.6 22,-22.3 13.6,-59 -15.7,-67.9 -15.3,-4.7 -29,-1.2 -40.5,10.1 -12.1,11.9 -24,24.1 -36,36.1 -1.1,1.4 -2.2,2.9 -3.5,4.4 z"
   id="path1170"
   inkscape:connector-curvature="0"
   style="fill:#aa0000" />
	<g
   id="g1282"
   style="fill:#aa0000">
		<g
   id="g1280"
   style="fill:#aa0000">
			<g
   id="g1278"
   style="fill:#aa0000">
				<g
   id="g1276"
   style="fill:#aa0000">
					<path
   d="m 362,248.1 c 0.5,-0.9 1.4,-2.1 1.8,-2.8 -1,0.9 -1.7,1.9 -1.8,2.8 z"
   id="path1172"
   inkscape:connector-curvature="0"
   style="fill:#aa0000" />
					<path
   d="m 173.9,243 c 0.3,-0.4 0.6,-0.8 0.9,-1.2 -0.2,0.2 -0.4,0.3 -0.6,0.5 z"
   id="path1174"
   inkscape:connector-curvature="0"
   style="fill:#aa0000" />
					<path
   d="m 174.1,242.3 c 0,0 0.2,-0.7 0.5,-1.3 0.3,-0.6 0.6,-1.3 0.6,-1.3 -1.3,1.5 -1.7,2.4 -1.8,2.7 -0.1,0.4 0.2,0.3 0.7,-0.1 z"
   id="path1176"
   inkscape:connector-curvature="0"
   style="fill:#aa0000" />
					<path
   d="m 374.2,227 c 1.5,-1.8 2.9,-3.7 4,-5.7 z"
   id="path1178"
   inkscape:connector-curvature="0"
   style="fill:#aa0000" />
					<path
   d="m 353.4,242.5 c -0.3,0.1 -0.8,0.3 -1.5,0.8 0.6,-0.2 1.1,-0.5 1.5,-0.8 z"
   id="path1180"
   inkscape:connector-curvature="0"
   style="fill:#aa0000" />
					<path
   d="m 419.9,40 c 0.3,0.2 0.7,0.4 1,0.6 -0.5,-0.4 -0.8,-0.6 -1,-0.6 z"
   id="path1182"
   inkscape:connector-curvature="0"
   style="fill:#aa0000" />
					<path
   d="m 404.9,27.8 c -0.6,-0.5 -1.2,-1 -1.7,-1.5 -0.6,-0.4 -1.2,-0.8 -1.7,-1.2 h -0.3 c 0.2,0.3 0.9,0.8 1.7,1.3 0.6,0.5 1.4,1 2,1.4 z"
   id="path1184"
   inkscape:connector-curvature="0"
   style="fill:#aa0000" />
					<path
   d="m 409.9,33.6 c 0,0 -0.7,-0.6 -1.4,-1.3 -0.4,-0.3 -0.8,-0.6 -1,-0.8 -0.3,-0.2 -0.5,-0.4 -0.5,-0.4 1,0.9 1.9,1.8 2.9,2.5 z"
   id="path1186"
   inkscape:connector-curvature="0"
   style="fill:#aa0000" />
					<path
   d="m 297.4,20.8 -0.1,1 c 0.2,-0.5 0.2,-0.8 0.1,-1 z"
   id="path1188"
   inkscape:connector-curvature="0"
   style="fill:#aa0000" />
					<path
   d="m 423.5,42.6 c -0.9,-0.8 -1.7,-1.5 -2.7,-2 1.4,1.1 3.2,3.3 2.7,2 z"
   id="path1190"
   inkscape:connector-curvature="0"
   style="fill:#aa0000" />
					<path
   d="m 361.8,248.8 c 0,-0.2 0.1,-0.5 0.1,-0.7 -0.3,0.6 -0.4,0.9 -0.1,0.7 z"
   id="path1192"
   inkscape:connector-curvature="0"
   style="fill:#aa0000" />
					<path
   d="m 386.2,215 -0.3,0.2 c -1,1.2 -0.6,0.8 0.3,-0.2 z"
   id="path1194"
   inkscape:connector-curvature="0"
   style="fill:#aa0000" />
					<path
   d="m 264.7,235.7 c 1,-0.7 1.8,-1.2 2.6,-2 0.8,-0.7 1.6,-1.5 2.3,-2.3 -2,1.7 -3.2,2.6 -3.9,3.2 -0.8,0.6 -1.1,1 -1,1.1 z"
   id="path1196"
   inkscape:connector-curvature="0"
   style="fill:#aa0000" />
					<path
   d="m 445.1,104.1 c -1.2,1.5 -1.6,-0.9 -2,-3.6 -0.4,-2.7 -1.1,-5.5 -2.3,-4.9 0.4,1.2 0.7,2.3 1.1,3.4 0.3,1.1 0.5,2.1 0.6,3 0.3,1.8 0.2,3.4 -0.4,4.6 -1,-1.9 -1.3,-4.5 -1.7,-6.7 -0.5,-2.2 -1,-4.2 -2.4,-4.9 0,0 0.6,1.8 1.1,3.5 0.3,0.9 0.6,1.8 0.7,2.4 0.2,0.7 0.3,1.1 0.3,1.1 -0.5,4.8 -3.2,-1.3 -2.4,3 2,2.8 2.1,8.2 1.6,13.5 -0.1,1.3 -0.4,2.7 -0.6,3.9 -0.2,1.3 -0.4,2.6 -0.7,3.7 -0.5,2.4 -0.8,4.5 -1,6.2 0,0 0,-0.6 0,-1.2 0,-0.6 0,-1.2 0,-1.2 0,0 0,0.2 -0.1,0.4 -0.1,0.3 -0.2,0.7 -0.3,1.1 -0.3,0.9 -0.6,2.2 -1,3.4 -0.2,0.6 -0.4,1.2 -0.5,1.8 -0.2,0.6 -0.4,1.1 -0.6,1.5 -0.3,0.9 -0.5,1.5 -0.5,1.5 -0.1,0.1 -0.1,0 -0.2,0 0.1,0.2 0.3,0.4 0.5,0.6 -0.3,0.4 -0.6,1 -0.9,1.5 -0.3,0.5 -0.7,1.1 -1,1.8 -0.7,1.3 -1.3,2.7 -2,4.2 -0.8,1.5 -1.4,3.2 -2.2,5 -0.4,0.9 -0.8,1.8 -1.2,2.7 -0.4,0.9 -0.7,1.9 -1.1,2.8 0,0.9 -0.5,2.8 -1.6,5.3 -0.6,1.2 -1.3,2.5 -2,3.9 -0.8,1.4 -1.7,2.8 -2.5,4.2 -3.6,5.6 -7.9,10.9 -8.6,12.8 1.1,-1.4 2,-2.8 3.1,-4.2 0.5,-0.7 1.1,-1.4 1.8,-2.1 0.6,-0.7 1.3,-1.5 2,-2.3 l 1.3,1.8 c -0.6,0.8 -1.1,1.4 -1.5,1.9 -0.4,0.4 -0.7,0.7 -1,0.8 -0.5,0.3 -0.7,0.2 -0.8,0.2 -0.3,-0.1 -0.5,-0.2 -2.4,3.2 1.5,0.4 3.4,-1.7 5.1,-4.6 0.8,-1.5 1.7,-3 2.6,-4.6 0.8,-1.6 1.6,-3 2.4,-4.2 -0.5,2.1 -1.5,4.9 -3.4,7.9 3.5,-4.5 6.6,-9.3 8.9,-13.9 1.1,-2.4 2.1,-4.6 2.6,-6.9 0.3,-1.1 0.5,-2.2 0.7,-3.3 0.1,-1.1 0.2,-2.2 0.1,-3.2 1.6,-2.8 2.3,-1 1.8,1.4 0.6,-4.2 1.3,-5.5 2.1,-6.8 0.4,-0.6 0.8,-1.2 1.1,-2.1 0.3,-0.9 0.4,-2.1 0.4,-3.9 0.5,0.7 0.7,2.2 0.5,4.1 -0.1,0.9 -0.3,2 -0.5,3.1 -0.2,1.1 -0.4,2.3 -0.8,3.5 -0.7,2.4 -1.4,5 -2.3,7.3 -0.4,1.2 -0.8,2.3 -1.1,3.4 -0.4,1.1 -0.7,2.1 -0.9,3 -1.6,2.3 -3.3,4.7 -4.9,7.3 -0.8,1.3 -1.7,2.6 -2.5,3.9 -0.8,1.4 -1.7,2.7 -2.6,4 -1.7,2.7 -3.6,5.4 -5.5,8 -1,1.3 -2,2.5 -3,3.8 -1,1.3 -2,2.4 -3,3.5 -0.9,-0.5 -0.2,-2.6 0.2,-4.2 0.4,-1.6 0.4,-2.8 -1.5,-1.5 -9,7.5 -7.3,9.2 -11,14.7 -6.3,5.5 -3,-1.7 -12.3,7.7 l 4.5,-6.5 c -7.3,3.5 -4.2,6 -8.7,9.7 1.8,-0.8 2.4,-0.3 6.9,-5.1 1.2,0.2 -2,4.2 -3.6,6 l 1.1,-1 c -0.9,2.9 -0.5,4.6 -6.8,10.1 2.5,-4.9 -5.5,3.8 -7.5,4.7 l 1.3,-1.8 c -3.9,4.7 -8.5,9 -11,12 l -0.1,-0.5 c -2.7,3.7 -2.5,6.4 -7.5,10.8 -0.1,-1.1 3.9,-8.3 -1.1,-2.8 -0.2,-1.6 5.5,-7.5 10.5,-11.9 -5,4.4 -8.8,5.3 -3.2,-0.6 -2.7,0.4 -4.9,5.9 -8.5,8.5 0.9,-0.2 0.3,1.2 0.9,1.3 -1.7,-1.4 -11.4,11.1 -10.5,12.4 l 4.8,-6.5 c 1.7,0.8 -4.6,8.7 -1.7,7.1 -4.6,0.7 -14.1,15.9 -18.7,17.1 l 3,-1 c -3.1,2.7 -5.9,5.5 -8.5,8.3 -1.3,1.4 -2.6,2.8 -3.8,4.3 -1.3,1.4 -2.6,2.9 -3.9,4.3 -5.4,5.6 -11.3,11 -18.8,15.3 1.2,-0.9 2,-1.8 2.8,-2.6 0.7,-0.8 1.3,-1.7 2,-2.6 0.7,-0.9 1.6,-1.8 2.9,-2.8 0.6,-0.5 1.3,-1.1 2.2,-1.6 0.8,-0.6 1.8,-1.2 2.9,-1.9 -1.6,1.2 -3,1.9 -4,2.5 -1.1,0.6 -1.9,1 -2.5,1.1 -1.2,0.4 -1.6,0.2 -1.8,-0.2 -0.3,-0.8 0.5,-2.5 -1.9,-1.8 -5.3,2.6 -6.4,3.8 -6.5,4.9 0,1.1 1,1.9 -0.5,3.2 0,0 0.5,-0.3 1.2,-0.7 0.7,-0.4 1.6,-0.9 2.5,-1.5 1.8,-1.2 3.6,-2.3 3.6,-2.3 -1,1.1 -2.2,2.1 -3.5,3.1 -1.4,1 -2.9,1.9 -4.6,2.8 -3.4,1.7 -7.3,3.3 -11.6,4.4 -0.5,0.2 -1.1,0.3 -1.6,0.5 -0.5,0.1 -1.1,0.3 -1.6,0.4 -1.1,0.3 -2.2,0.5 -3.3,0.8 -2.2,0.4 -4.4,1 -6.7,1.4 -2.2,0.5 -4.5,0.8 -6.6,1.2 -1.1,0.2 -2.2,0.4 -3.3,0.6 -1.1,0.2 -2.1,0.4 -3.2,0.6 -0.7,-0.4 0.2,-0.6 1.5,-0.7 1.3,-0.2 3.1,-0.4 4.2,-0.7 -2,-0.2 -3.4,-0.3 -4.5,-0.2 -1.1,0 -1.9,0.2 -2.7,0.5 -0.7,0.2 -1.3,0.6 -2.1,0.9 -0.7,0.3 -1.6,0.6 -2.7,0.8 -2,0 -4.1,-0.2 -6,-0.4 -1.9,-0.2 -3.7,-0.6 -5.1,-0.9 -2.7,-0.8 -3.7,-1.7 -1.2,-2.5 -8.4,-1.5 0.8,1.4 -3.9,1.6 l -1.5,-0.7 c 0,0 -0.6,0.1 -1.5,0.2 -0.4,0 -1,0.1 -1.5,0.2 -0.6,0 -1.1,0.1 -1.7,0.1 -1.2,0.1 -2.4,0.1 -3.3,0.2 -0.9,0 -1.5,0 -1.5,0 -0.9,-0.3 -1.8,-0.7 -2.8,-1 -0.9,-0.4 -1.9,-0.8 -2.8,-1.2 -1.9,-0.8 -3.6,-1.7 -5.2,-2.6 -3.2,-1.9 -5.8,-3.8 -6.8,-5.5 -2,-0.8 -3.6,-1.5 -4.9,-2 -0.6,-0.2 -1.2,-0.4 -1.8,-0.6 -0.5,-0.2 -1,-0.3 -1.4,-0.4 -1.6,-0.3 -2.5,-0.1 -3.2,0.2 -0.7,0.3 -1.4,0.7 -2.5,0.6 -0.6,0 -1.3,-0.2 -2.2,-0.5 -0.5,-0.2 -1,-0.4 -1.6,-0.7 -0.6,-0.3 -1.2,-0.7 -1.9,-1.1 -5.4,-5.1 2.1,-0.6 3.1,-0.9 0,0 -0.6,-0.4 -1.5,-1 -0.9,-0.6 -2.1,-1.4 -3.3,-2.2 -1.2,-0.8 -2.3,-1.7 -3.2,-2.3 -0.4,-0.3 -0.8,-0.6 -1.1,-0.8 -0.3,-0.2 -0.4,-0.3 -0.4,-0.3 0.6,0.1 1.2,0.3 1.9,0.6 0.6,0.2 1.3,0.5 1.9,0.8 1.3,0.6 2.6,1.4 3.8,2 1.2,0.6 2.3,1.1 3.2,1.3 0.9,0.2 1.5,0 1.7,-0.7 -2.3,-0.6 -4.2,-1.5 -5.8,-2.3 -1.6,-0.9 -3,-1.9 -4.4,-3 -1.4,-1.1 -2.8,-2.4 -4.4,-4 -1.5,-1.7 -3.2,-3.6 -5,-6.5 l 0.1,0.8 c -1.1,-1.1 -2,-2.9 -2.7,-5.2 -0.6,-2.2 -0.9,-4.8 -0.7,-7.4 0.3,-5.2 2.1,-10.3 3.5,-13.9 -0.1,1.7 -0.8,4.5 -1.3,7.6 -0.5,3.1 -0.7,6.6 -0.3,9.3 0.1,-2.1 0.4,-5 1,-8.1 0.7,-3.1 1.6,-6.7 3.1,-10 1.4,-3.3 3.3,-6.4 5,-9.1 0.9,-1.3 1.8,-2.6 2.6,-3.6 0.4,-0.6 0.8,-1.1 1.1,-1.6 0.4,-0.5 0.7,-0.9 1,-1.3 1,-0.7 2.6,-1.4 4,-2.2 1.5,-0.6 3,-1.2 4.3,-1.4 1.2,-0.2 2,-0.3 2.2,-0.1 0.1,0.2 -0.4,0.7 -2,1.6 2,-0.8 3.6,-1.2 5,-1.6 0.7,-0.1 1.3,-0.3 1.8,-0.4 0.5,-0.2 1,-0.3 1.4,-0.4 1.7,-0.4 2.5,-0.9 3.4,-1.2 0.4,-0.2 0.8,-0.4 1.3,-0.5 0.5,-0.2 1.1,-0.3 1.8,-0.3 1.5,0 3.9,0.2 7.5,1.6 l -1.2,1.6 c 3.7,1.9 7.2,3.6 10.7,5.3 0.9,0.4 1.8,0.8 2.7,1.2 l 2.7,1.1 2.7,0.9 c 0.9,0.3 1.8,0.5 2.7,0.7 3.7,0.9 7.3,1.2 10.9,1.3 3.6,0.1 7.1,-0.1 10.8,-0.5 0,0 0.1,-0.6 0.1,-1.3 0,-0.6 0.1,-1.2 0.1,-1.2 0.8,0 1.7,0 2.7,-0.2 0.5,-0.1 1,-0.2 1.6,-0.3 0.5,-0.1 1,-0.3 1.6,-0.4 1,-0.2 2,-0.6 2.8,-0.8 0.8,-0.2 1.5,-0.4 1.8,-0.3 0,0 -0.4,0.3 -0.9,0.7 -0.6,0.4 -1.3,0.9 -2.1,1.5 -0.8,0.5 -1.6,1 -2.2,1.3 -0.6,0.3 -1.1,0.5 -1.1,0.5 0.8,0 1.6,-0.2 2.2,-0.4 0.6,-0.2 1.2,-0.4 1.7,-0.7 1,-0.6 1.7,-1.3 2.5,-2 0.7,-0.8 1.5,-1.6 2.5,-2.4 0.9,-0.8 2.1,-1.7 3.7,-2.8 -0.3,-0.2 -1.8,0.5 -3.4,0.9 -0.8,0.2 -1.5,0.4 -2.1,0.5 -0.6,0.1 -1.1,0.1 -1.2,-0.1 -3,2.1 -6.3,3.8 -9.7,4.9 -3.4,1.1 -7,1.5 -10.6,1.4 -3.6,-0.2 -7.2,-0.9 -10.7,-2.2 -0.9,-0.3 -1.7,-0.6 -2.6,-1 -0.8,-0.4 -1.7,-0.7 -2.5,-1.1 l -2.5,-1.3 -2.7,-1.4 c -3.7,-1.9 -7.5,-3.7 -11.7,-5 -2.1,-0.7 -4.3,-1.2 -6.6,-1.5 -1.1,-0.2 -2.4,-0.2 -3.5,-0.3 -1.2,-0.1 -2.4,0.1 -3.6,0.1 -4.7,0.5 -9.3,2.1 -13.2,4.5 -3.9,2.4 -7.3,5.5 -10,9.1 1.1,-0.8 2.5,-1.7 2.2,-0.8 -0.4,0.3 -0.8,0.6 -1.2,1 -0.4,0.4 -0.8,0.8 -1.2,1.3 -0.4,0.4 -0.8,0.9 -1.1,1.3 -0.3,0.5 -0.7,0.9 -1,1.3 -1.3,1.7 -2.1,2.9 -2.4,2.1 l 0.5,-1.2 c -2.3,4.1 -4.5,8 -6.1,11.8 -1.7,3.7 -2.8,7.5 -2.7,10.6 0.2,0.5 0.4,1.2 0.5,2.1 0.2,0.8 0.3,1.8 0.5,2.9 0.4,2.1 1.1,4.5 1.9,6.5 0.9,2 1.8,3.6 2.5,4.4 0.7,0.8 1.2,0.7 1.1,-0.6 0,0 0.1,0.4 0.3,1 0.2,0.6 0.5,1.4 0.9,2.2 0.3,0.8 0.7,1.6 1,2.1 0.3,0.6 0.5,1 0.5,1 1.1,0.4 1.7,0.2 2.5,0.1 0.7,0 1.5,0.1 3.1,1.1 4.7,3.8 4.2,4.8 -0.1,2.4 8.8,7.7 20.2,14.1 32.5,18.2 12.3,4.1 25.3,5.7 37.3,5.2 0,0 -1.6,0.4 -3.2,0.6 -1.6,0.3 -3.2,0.6 -3.2,0.6 1.4,0.2 3.5,0.2 5.7,0.1 2.2,-0.2 4.5,-0.4 6.4,-0.7 1,-0.1 1.9,-0.2 2.6,-0.3 0.8,-0.1 1.4,-0.1 1.8,0 0.8,0.1 0.9,0.5 -0.3,1.5 2.9,-0.6 6.4,-1.2 9.9,-1.9 1.8,-0.4 3.6,-0.7 5.3,-1.1 1.8,-0.4 3.5,-0.8 5.1,-1.3 1.6,-0.5 3.1,-0.9 4.5,-1.5 1.4,-0.5 2.6,-1 3.6,-1.6 2,-1.1 3.1,-2.1 3,-2.9 4.2,0 11,-2.7 17.9,-7.2 1.7,-1.1 3.4,-2.4 5.2,-3.7 0.8,-0.7 1.7,-1.4 2.5,-2.1 0.8,-0.7 1.7,-1.4 2.5,-2.2 0.8,-0.7 1.6,-1.5 2.4,-2.2 0.8,-0.7 1.5,-1.5 2.3,-2.3 1.6,-1.6 2.9,-3 4.2,-4.4 -3.9,-0.2 8.6,-9.5 10.6,-13.4 3.1,0.1 -7.6,10.8 -6.8,12 9,-13.7 33.3,-29.3 34,-38.2 1.5,-1.2 1.7,-1.1 1.4,-0.4 2.2,-2.2 5.8,-4.4 8.1,-6.4 0.6,-2 -4.4,2.4 0.5,-3.1 4.3,-4 3.1,-0.5 5.3,-1.7 6.9,-8.8 18.9,-21.9 18.5,-24.9 2.8,-1.9 6.1,-3.5 3.9,-0.6 5.5,-7 8.5,-10 11.6,-13 0.8,-0.7 1.5,-1.5 2.4,-2.3 0.8,-0.8 1.7,-1.8 2.7,-2.8 1,-1.1 2,-2.2 3.1,-3.7 0.5,-0.7 1.1,-1.5 1.7,-2.3 0.6,-0.8 1.3,-1.7 1.9,-2.7 -0.9,1.3 -1.5,2.2 -1.8,2.9 -0.3,0.7 -0.4,1.3 -0.6,1.9 -0.2,0.6 -0.5,1.3 -1.1,2.2 -0.7,0.9 -1.8,2 -3.5,3.6 3.7,-1.6 8.5,-7.3 12.8,-14.3 1,-1.8 2.2,-3.6 3.1,-5.5 1,-1.9 2,-3.8 2.9,-5.8 0.9,-2 1.9,-3.8 2.7,-5.7 0.8,-1.9 1.8,-3.7 2.6,-5.4 0,0 0,-1.6 0,-3.2 0,-0.8 0,-1.6 0,-2.2 0,-0.6 0,-1 0,-1 0.5,-2.2 1,-3.9 1.5,-5 0.5,-1.2 0.8,-1.8 1.1,-2 0.6,-0.4 1.1,1.3 0.6,4.5 0.3,-0.9 0.7,-1.8 0.9,-2.7 0.2,-0.9 0.5,-1.8 0.7,-2.6 0.4,-1.7 0.9,-3.4 1.1,-5 0.3,-1.6 0.5,-3.1 0.7,-4.6 0.1,-1.5 0.2,-2.9 0.3,-4.3 0,-0.7 0.1,-1.4 0.1,-2.1 0,-0.7 0,-1.4 0,-2.1 0,-1.4 0,-2.7 -0.1,-4.1 0,-1.4 -0.2,-2.7 -0.2,-4.1 -0.1,-1.4 -0.1,-2.9 -0.3,-4.3 0.2,-0.7 0.7,-0.2 0.7,1.8 0,0 0,-0.3 0,-0.7 0,-0.5 -0.1,-1.2 -0.2,-2 -0.1,-0.8 -0.1,-1.8 -0.2,-2.8 0,-0.5 -0.1,-1 -0.1,-1.6 -0.1,-0.5 -0.1,-1.1 -0.2,-1.6 -0.3,-2.1 -0.5,-4.3 -0.8,-5.9 -0.3,-1.6 -0.5,-2.6 -0.5,-2.6 -0.4,-0.8 -1.2,-2.7 -2,-4.1 -0.8,-1.5 -1.7,-2.5 -2.2,-1.7 0.4,0.4 0.9,1 1.2,1.7 0.4,0.7 0.7,1.6 1.1,2.7 0.3,1.1 0.7,2.5 0.9,4.1 0.7,1.5 0.8,3.5 1,5.8 z"
   id="path1198"
   inkscape:connector-curvature="0"
   style="fill:#aa0000" />
					<path
   d="m 441.3,89.7 c -0.1,-0.1 -0.2,-0.3 -0.4,-0.4 l 0.2,0.6 c 0,-0.1 0.1,-0.1 0.2,-0.2 z"
   id="path1200"
   inkscape:connector-curvature="0"
   style="fill:#aa0000" />
					<path
   d="m 379.4,216.4 c 1.5,-0.8 2.6,-1.5 3.4,-2.2 -0.8,0.3 -1.7,0.9 -3.4,2.2 z"
   id="path1202"
   inkscape:connector-curvature="0"
   style="fill:#aa0000" />
					<path
   d="m 322,8.1 c 1.2,1.5 3.6,1.2 6.7,0.7 3.1,-0.4 6.9,-1.2 10.5,-0.3 -1.7,0 -2.9,0.1 -3.7,0.3 -0.8,0.2 -1.2,0.5 -1.4,0.9 -0.3,0.6 0.3,1.3 0.7,1.8 2.1,-0.9 3.8,-1.2 5.4,-1.2 0.8,0 1.6,0.1 2.3,0.2 0.8,0.2 1.5,0.4 2.4,0.7 0.8,0.3 1.7,0.6 2.7,0.9 1,0.3 2,0.6 3.2,1 1.2,0.4 2.5,0.8 3.9,1.2 0.7,0.2 1.5,0.4 2.3,0.5 0.8,0.2 1.7,0.4 2.6,0.6 0,0.7 -1.8,0.5 -3.7,0.5 -1.9,0 -4,0 -4.5,0.6 1,0.1 2.1,0.2 3.2,0.3 0.6,0.1 1.1,0.1 1.7,0.2 0.6,0.1 1.2,0.2 1.7,0.3 1.2,0.2 2.3,0.4 3.5,0.6 1.2,0.2 2.3,0.4 3.4,0.6 2.2,0.5 4.2,0.8 5.8,1 0.8,0.1 1.5,0.1 2.1,0.1 0.6,0 1.1,-0.1 1.4,-0.3 1.6,0.7 3.2,1.4 4.7,2 1.5,0.7 2.9,1.5 4.2,2.2 2.8,1.4 5.1,3 7.4,4.4 0.6,0.4 1.1,0.7 1.7,1.1 0.5,0.4 1,0.8 1.5,1.1 1,0.7 2,1.4 3,2.1 1,0.7 1.8,1.4 2.7,2.1 0.9,0.7 1.7,1.4 2.6,2 -4.3,-2.9 -5,-2.7 -5.5,-2.2 -0.5,0.5 -0.9,1.3 -4.4,0 4.9,1.6 12.2,5.6 19.4,11.3 1.9,1.4 3.5,3 5.3,4.5 1.8,1.5 3.4,3.3 5,5 0.8,0.9 1.7,1.7 2.4,2.5 0.7,0.9 1.5,1.7 2.2,2.6 0.7,0.9 1.4,1.7 2.1,2.5 0.6,0.9 1.3,1.7 1.9,2.5 -1.4,2.9 -1.4,3.5 -4.3,2.8 1.5,4 2.2,6.3 2.9,7.7 0.7,1.4 1.2,1.8 1.7,2.2 0.5,0.4 1,0.8 1.7,2.1 0.3,0.6 0.7,1.5 1.1,2.7 0.2,0.6 0.4,1.3 0.7,2.1 0.2,0.8 0.4,1.7 0.6,2.7 0,0 -0.1,-0.5 -0.2,-1.2 -0.1,-0.7 -0.3,-1.6 -0.6,-2.6 -0.5,-1.8 -1,-3.7 -1,-3.7 0.8,1.8 1.5,3.1 2.2,4.1 0.7,1 1.3,1.8 1.9,2.3 1.2,1.1 2.4,1.6 3.5,2.6 0,0 -0.3,-1.2 -0.8,-3 -0.3,-0.9 -0.5,-2 -0.9,-3.1 -0.4,-1.1 -0.8,-2.3 -1.2,-3.5 -0.4,-1.2 -0.8,-2.4 -1.2,-3.5 -0.4,-1.1 -0.9,-2.1 -1.2,-3 -0.7,-1.7 -1.2,-2.9 -1.2,-2.9 0.8,-0.3 2.4,2.6 3.9,5.9 1.3,3.4 2.7,7.3 3.3,9.1 1.8,2.7 1.5,-0.1 0.9,-3.3 -0.7,-3.2 -1.6,-6.9 -0.5,-6.1 -1.1,-1.2 -2.4,-3.7 -3.6,-6.5 -0.3,-0.7 -0.6,-1.4 -1,-2.1 -0.4,-0.7 -0.7,-1.4 -1.1,-2.1 -0.7,-1.4 -1.5,-2.7 -2.2,-3.8 l 0.4,-1.3 c -1,-2.3 -2,-4.2 -3.1,-5.9 -0.3,-0.4 -0.5,-0.9 -0.8,-1.3 -0.3,-0.4 -0.6,-0.8 -0.9,-1.2 -0.6,-0.8 -1.2,-1.5 -1.8,-2.2 -0.6,-0.7 -1.2,-1.4 -1.8,-2.1 -0.6,-0.7 -1.3,-1.3 -2,-2 -1.3,-1.4 -2.6,-2.9 -4.1,-4.6 -0.3,-0.8 -0.3,-1 0,-1 -1.4,-0.8 -2.9,-1.6 -4.5,-2.6 -0.4,-0.3 -0.8,-0.5 -1.2,-0.8 -0.4,-0.3 -0.9,-0.5 -1.3,-0.8 -0.9,-0.6 -1.9,-1.3 -2.9,-2.1 l 3,2.7 c -1.7,-0.9 -3.9,-2.3 -6.1,-3.5 -2.3,-1.2 -4.5,-2.5 -6.3,-3.3 -3.7,-1.5 -5.4,-1.5 -1.5,2.7 0,0 -0.2,-0.2 -0.7,-0.5 -0.4,-0.3 -1,-0.8 -1.8,-1.3 -1.5,-1.1 -3.4,-2.6 -5.5,-3.9 -1,-0.7 -2.1,-1.3 -3,-2 -0.5,-0.3 -0.9,-0.6 -1.4,-0.9 -0.5,-0.3 -0.9,-0.5 -1.3,-0.7 -1.6,-0.9 -2.7,-1.5 -2.7,-1.5 1.5,-0.6 3.6,-1.3 6.7,-1.1 3,0.3 7.1,1.4 12.1,4.9 h 1.8 c -1.7,-1.6 -3.9,-3.3 -6.3,-4.6 -2.4,-1.3 -5,-2.4 -7.1,-3.1 -4.5,-1.2 -7.3,-1.2 -5.2,1 -1.3,0.2 -2.7,0 -4.2,-0.2 -1.5,-0.2 -3.1,-0.6 -4.8,-1.1 -0.8,-0.3 -1.7,-0.6 -2.6,-0.9 -0.9,-0.3 -1.8,-0.6 -2.7,-0.9 -1.8,-0.6 -3.7,-1.4 -5.7,-2.1 -7.8,-2.9 -16.8,-5.4 -24.2,-4.8 -0.2,-0.4 0.1,-0.7 0.8,-1 0.7,-0.2 1.8,-0.5 3,-0.5 2.4,-0.1 5.4,-0.2 7.3,-0.4 4.4,0.8 7.6,1.4 7.6,2.9 9.3,2.1 8.8,0.8 8.4,-0.5 -0.2,-0.6 -0.3,-1.2 0.9,-1.1 0.6,0 1.6,0.2 3,0.7 0.7,0.2 1.6,0.5 2.5,0.8 0.5,0.2 1,0.4 1.6,0.6 0.6,0.2 1.1,0.5 1.8,0.8 4.9,2.5 1.5,1.8 -1.1,1.3 -1.3,-0.3 -2.5,-0.4 -2.4,-0.1 0,0.1 0.4,0.3 1.2,0.7 0.8,0.4 2,1 3.8,1.8 0,0 0.8,0 1.9,0.1 0.6,0 1.2,0 2,0.1 0.7,0.1 1.5,0.1 2.2,0.2 3.1,0.3 6.2,0.7 6.2,0.7 -9,-4.8 -17.9,-7.3 -25.6,-9.1 -10.8,-2.5 -21.1,-3.8 -30.4,-4 -9.2,-0.3 -17.4,0.7 -24,1.9 -1.7,0.3 -3.2,0.6 -4.7,0.9 -1.5,0.3 -2.8,0.7 -4.1,1 -1.3,0.3 -2.5,0.6 -3.6,0.9 -1.1,0.3 -2.1,0.6 -2.9,0.9 -1.8,0.5 -3.1,1 -4,1.2 -0.9,0.3 -1.4,0.5 -1.4,0.5 l -4.5,2.1 -1.1,0.5 -1.1,0.6 -2.2,1.2 c -1.4,0.8 -2.9,1.5 -4.3,2.4 l -4.2,2.7 c -1.4,0.9 -2.7,1.8 -4.1,2.8 l -4,2.9 -3.8,3.6 c -1.3,1.1 -2.5,2.1 -3.7,3.2 -4.9,4.5 -9.2,8.8 -13.6,13.2 l -13.1,13.3 c -8.7,8.9 -17.3,17.8 -25.9,26.7 l -16.8,17.3 -5,5.5 c -0.4,0.5 -0.8,0.9 -1.2,1.3 l -1.1,1.3 -2.2,2.5 -2.2,2.5 -2.3,2.7 -1.2,1.4 -0.6,0.7 -0.3,0.3 c 0,0.1 -0.1,0.1 -0.1,0.2 v 0.1 l -0.7,1.7 c 5.2,-0.6 11.1,-1.2 16.6,-1.7 2.8,-0.3 5.5,-0.5 8.2,-0.8 l 7.6,-0.3 c 1.3,-0.1 2.5,0 3.7,0 l 2.7,0.1 c 1.4,0 2.8,0.2 4.3,0.3 1.4,0.1 2.8,0.3 4.2,0.4 l 2.1,0.2 2.1,0.3 c 9.1,1.2 15.2,2.9 20,3.9 1.2,0.2 2.4,0.5 3.4,0.6 1.1,0.2 2.1,0.3 3.2,0.4 2,0.2 4.1,0.1 6.2,-0.1 -1.6,-1.2 -5.2,-2.8 -7.9,-4 -0.7,-0.3 -1.3,-0.6 -1.8,-0.8 -0.5,-0.2 -0.9,-0.5 -1.2,-0.6 -0.5,-0.4 -0.4,-0.6 0.7,-0.7 -2.5,0.9 -9.6,-0.7 -19.3,-2.6 -0.4,-0.9 1.9,-0.6 4,-0.2 2.1,0.4 3.9,1 2.7,0.5 0,0 -0.5,-0.1 -0.9,-0.3 -0.5,-0.1 -0.9,-0.3 -0.9,-0.3 1.2,-0.6 3,-0.7 6.1,0 -5.2,-2.7 -13.3,-4.9 -21.1,-5.3 -2,-0.1 -3.9,-0.2 -5.8,-0.1 -1,0 -1.6,0.1 -2.4,0.1 -0.7,0 -1.4,0.2 -2.2,0.3 -2.9,0.4 -6,1.1 -9.1,1.9 -1.7,-0.3 -1.8,-0.6 -1.1,-1 0.7,-0.3 2.3,-0.8 4,-1.1 1.7,-0.3 3.6,-0.7 5.2,-0.9 1.6,-0.3 3,-0.6 3.8,-0.8 -4.3,-0.4 -7.8,-0.4 -10.9,-0.2 -0.4,0 -0.7,0.1 -1.1,0.1 -0.3,0.1 0,-0.1 0.1,-0.3 l 0.4,-0.5 c 0.6,-0.6 1.1,-1.2 1.7,-1.8 1.1,-1.1 2.2,-2.1 3.3,-3.2 1,-1 2.1,-2 3.1,-3 l 2,-2 c 0.9,-0.9 1.9,-1.9 2.8,-2.9 7.6,-7.6 15.4,-15.6 24.4,-24.6 -1.6,-2.4 1.1,-3.6 2.9,-8.2 l 2.7,-1.2 c -1.4,0.6 0.5,-4 -4.5,0.2 7.4,-5.9 10.7,-10.4 13.2,-14.8 1.2,-2.2 2.3,-4.3 3.5,-6.5 0.6,-1.1 1.3,-2.2 2.1,-3.4 0.8,-1.2 1.8,-2.4 2.9,-3.6 l 0.3,1.7 c 1,-1 1.9,-1.8 2.7,-2.6 0.8,-0.8 1.7,-1.5 2.4,-2.1 1.5,-1.3 2.8,-2.5 4.1,-3.6 1.3,-1 2.6,-2.1 4,-3.2 0.7,-0.6 1.4,-1.2 2.2,-1.8 0.8,-0.6 1.7,-1.3 2.7,-2 2.1,-0.9 3.4,-1.4 4.2,-1.6 0.8,-0.2 1,-0.1 0.8,0.1 -0.4,0.4 -2.3,1.7 -4.6,3.3 -2.3,1.5 -4.7,3.5 -6.2,5 -1.5,1.5 -2.1,2.6 -0.6,2.6 l 3.7,-3.4 c -0.8,1.4 -1.4,3 -2.3,4.8 -0.9,1.8 -1.9,3.9 -3.7,5.9 1.4,-1.5 2.7,-2.8 4,-4.1 1.3,-1.1 2.6,-2.2 3.9,-3.1 0.6,-0.5 1.3,-0.9 1.9,-1.4 0.7,-0.4 1.3,-0.8 2,-1.2 1.3,-0.8 2.6,-1.5 3.9,-2.2 1.3,-0.7 2.7,-1.3 4.1,-2 1.4,-0.7 2.8,-1.4 4.3,-2.1 1.5,-0.7 3.1,-1.4 4.8,-2.3 1.7,-0.7 3.6,-1.6 5.5,-2.5 -0.4,0.6 -1.5,1.4 -3.1,2.4 -0.8,0.5 -1.7,0.9 -2.6,1.5 -0.9,0.6 -1.9,1.2 -2.9,1.8 -1,0.6 -2,1.2 -3,1.8 -1,0.6 -1.9,1.2 -2.7,1.8 -0.9,0.6 -1.7,1.1 -2.4,1.5 -0.7,0.5 -1.2,0.9 -1.7,1.2 1.2,-0.8 2.7,-1.6 4.2,-2.5 1.5,-0.9 3.1,-1.9 4.6,-2.6 3,-1.5 5.5,-2.5 6,-1.8 l 0.3,-2.3 c 4.8,-1.9 4.6,-1.3 3.7,-0.3 -0.9,1 -2.5,2.6 -0.7,2.6 1.4,-0.5 2.5,-1 3.6,-1.4 1.1,-0.4 2,-0.7 2.8,-1.1 0.8,-0.3 1.5,-0.7 2,-1 0.6,-0.3 1,-0.5 1.4,-0.8 1.5,-1 1.6,-1.9 1.6,-2.8 0,-0.9 -0.2,-1.8 1,-2.8 0.3,-0.3 0.7,-0.5 1.1,-0.8 0.5,-0.3 1.1,-0.5 1.8,-0.7 1.7,-0.2 3.6,-0.8 6.2,-1.2 z"
   id="path1204"
   inkscape:connector-curvature="0"
   style="fill:#aa0000" />
					<path
   d="m 415.6,184.6 c 2,-2.2 3.7,-4.3 4.8,-6.4 -1.5,2.2 -3.2,4.2 -4.8,6.4 z"
   id="path1206"
   inkscape:connector-curvature="0"
   style="fill:#aa0000" />
					<path
   d="m 433.9,139.7 c -0.2,-0.3 -0.4,-0.6 -0.5,-1 0,0.8 0.1,1.2 0.5,1 z"
   id="path1208"
   inkscape:connector-curvature="0"
   style="fill:#aa0000" />
					<path
   d="m 432,134.5 c 0.5,-0.5 0.7,0 0.8,0.9 0.2,0.9 0.1,2.1 0.5,3.2 0,-0.8 0.1,-1.8 0.2,-2.9 0,-1.1 0.1,-2.1 0.1,-2.8 -0.1,-1.5 -0.4,-1.7 -1.6,1.6 z"
   id="path1210"
   inkscape:connector-curvature="0"
   style="fill:#aa0000" />
					<path
   d="m 264.9,119.5 c -0.1,0.2 -0.2,0.4 -0.4,0.7 -0.2,0.3 -0.5,0.7 -0.8,1.2 -0.5,0.8 -1.1,1.7 -1.5,2.4 -0.4,0.7 -0.7,1.3 -0.8,1.7 -0.1,0.4 -0.1,0.6 0.2,0.3 0,0 0.3,-0.5 0.8,-1.2 0.5,-0.7 1.2,-1.8 2.1,-2.9 1.6,-1.9 3.3,-3.8 3.3,-3.8 z"
   id="path1212"
   inkscape:connector-curvature="0"
   style="fill:#aa0000" />
					<path
   d="m 280.1,107.4 7.2,-6.1 2.5,-6.4 c -7.1,7.1 -2.6,5.3 -9.7,12.5 z"
   id="path1214"
   inkscape:connector-curvature="0"
   style="fill:#aa0000" />
					<path
   d="m 299.9,89.7 -1,2 c 1.1,-1.6 1.3,-2.1 1,-2 z"
   id="path1216"
   inkscape:connector-curvature="0"
   style="fill:#aa0000" />
					<path
   d="m 299.3,88.6 1.2,-4.1 -7.6,9.8 3.6,-3.1 c 0.5,0.5 2.9,-1.5 3.4,-1.6 l 2.3,-4.3 c -0.8,1 -2.2,2.9 -2.9,3.3 z"
   id="path1218"
   inkscape:connector-curvature="0"
   style="fill:#aa0000" />
					<path
   d="m 307.3,81.1 c -0.4,0 -0.8,0.1 -1.1,0.1 0.1,0.2 0.5,0.2 1.1,-0.1 z"
   id="path1220"
   inkscape:connector-curvature="0"
   style="fill:#aa0000" />
					<path
   d="m 331.4,76.3 c -1.2,-0.3 -0.6,-0.8 0.4,-1.3 1,-0.5 2.5,-0.9 2.9,-1.3 -1.2,-0.2 -2.4,-0.2 -3.3,-0.2 -1,0 -1.9,0.2 -2.7,0.3 -0.8,0.1 -1.5,0.4 -2.1,0.6 -0.6,0.2 -1.2,0.4 -1.8,0.7 -0.6,0.2 -1.1,0.5 -1.7,0.7 -0.6,0.3 -1.2,0.6 -1.8,0.8 -0.7,0.2 -1.3,0.5 -2.1,0.8 -0.4,0.1 -0.8,0.3 -1.3,0.4 -0.4,0.2 -0.9,0.3 -1.4,0.5 1.4,-0.9 2.5,-1.4 3.1,-1.8 0.7,-0.4 1,-0.6 1,-0.7 0,-0.2 -1.1,0 -2.8,0.5 -0.8,0.3 -1.8,0.7 -2.8,1 -1,0.4 -2,0.9 -3,1.4 -0.9,0.5 -1.9,1 -2.7,1.4 -0.8,0.4 -1.5,0.8 -2,1 0.8,0 1.7,-0.1 2.7,-0.4 1.1,-0.2 2.2,-0.6 3.6,-0.9 2.7,-0.8 6.2,-2 10.9,-2.7 0,0 0.2,-0.4 0.4,-0.7 0.2,-0.4 0.4,-0.7 0.4,-0.7 2.6,-0.4 3.2,-0.3 3.7,-0.1 0.4,0.2 0.6,0.5 2.4,0.7 z"
   id="path1222"
   inkscape:connector-curvature="0"
   style="fill:#aa0000" />
					<path
   d="m 373.2,100.7 c 0,0 -0.3,-0.4 -0.7,-1.1 -0.4,-0.6 -1.1,-1.4 -1.7,-2.2 -0.6,-0.8 -1.4,-1.5 -1.8,-2.1 -0.3,-0.3 -0.5,-0.5 -0.6,-0.7 -0.2,-0.2 -0.2,-0.2 -0.2,-0.2 0,-0.8 -1.6,-3.9 -3.6,-6.5 -0.5,-0.6 -1,-1.3 -1.4,-1.9 -0.5,-0.6 -0.9,-1.1 -1.2,-1.6 -0.6,-1 -1,-1.7 -0.6,-2 -3.9,-2.7 -5,-2.3 -8.4,-3.6 -1.3,-1.2 -2.5,-2.2 -4,-2.9 -0.8,-0.3 -1.6,-0.6 -2.5,-0.8 -0.9,-0.2 -1.9,-0.2 -3.1,-0.2 4.5,1.5 7.4,3.1 9.4,4.4 1,0.6 1.8,1.2 2.5,1.8 0.7,0.5 1.3,1 1.8,1.5 0.6,0.5 1.1,1 1.6,1.5 0.6,0.5 1.2,1.1 1.9,1.9 0.3,0.4 0.7,0.7 1.1,1.2 0.4,0.4 0.8,0.9 1.3,1.5 0.5,0.5 0.9,1.1 1.4,1.8 0.5,0.6 1,1.4 1.6,2.2 -0.3,0 -0.7,-0.4 -1.2,-1 -0.5,-0.6 -1.1,-1.3 -1.7,-2.1 0,0 0.4,0.5 0.9,1.3 0.6,0.8 1.2,1.9 1.8,3 1.2,2.2 2.1,4.6 2.1,4.6 0.6,-0.1 1.4,0.6 2.3,1.6 0.8,1 1.6,2.2 2.2,3.2 0.6,1 1,1.7 1.2,1.5 0.2,-0.4 0.2,-1.5 -0.4,-4.1 z"
   id="path1224"
   inkscape:connector-curvature="0"
   style="fill:#aa0000" />
					<path
   d="m 374.7,116.3 c -0.1,-4.2 -1.2,-7.4 -2.1,-8.9 -0.5,-0.7 -0.9,-1.1 -1.2,-1 -0.3,0.1 -0.5,0.6 -0.6,1.6 0,0 0.1,0.3 0.2,0.7 0.1,0.4 0.3,1.1 0.5,1.8 0.2,0.8 0.4,1.7 0.5,2.6 0.1,0.5 0.2,1 0.2,1.5 0.1,0.5 0.1,1 0.2,1.6 0.1,1.1 0.1,2.1 0.2,3.1 0,1 0,1.9 -0.1,2.8 -0.1,0.8 -0.1,1.5 -0.2,2 0,0.5 -0.1,0.7 -0.1,0.7 0.5,-2.5 0.8,-5.3 1,-7.1 0.2,-1.7 0.5,-2.7 1.5,-1.4 z"
   id="path1226"
   inkscape:connector-curvature="0"
   style="fill:#aa0000" />
					<path
   d="m 372.8,128.6 c -0.5,0.7 -1,1.6 -1.7,2.4 -0.3,0.4 -0.7,0.9 -1,1.4 -0.4,0.5 -0.7,0.9 -1.1,1.5 -1.4,2 -2.7,4.3 -3.6,7.1 2.6,-3.9 3.5,-4.8 4.6,-5.7 1,-1 2.1,-2 2.8,-6.7 z"
   id="path1228"
   inkscape:connector-curvature="0"
   style="fill:#aa0000" />
					<path
   d="m 333.9,172.6 12.2,-10.5 c 3.9,-0.4 -4.9,6 -7.5,10.3 10,-9.3 6.3,-6.8 12.5,-15.2 2.9,-2.7 6.2,-7.9 9,-11.6 -13.3,16.1 -18.3,12.6 -26.2,27 z"
   id="path1230"
   inkscape:connector-curvature="0"
   style="fill:#aa0000" />
					<polygon
   points="358.3,151.6 358.9,149.6 354,155.6 "
   id="polygon1232"
   style="fill:#aa0000" />
					<path
   d="m 305.2,197.7 c -8.9,4.8 -11.8,14.3 -20.5,21.2 0.7,-0.9 -0.1,-0.5 1.3,-2.4 l -6.3,6.8 -0.8,-0.2 c 1.6,0.8 -4.6,8.2 -6.6,12 8.1,-5.4 1.9,-5 9.2,-9.4 -0.9,2 -1,3.9 -1.9,5.7 3.4,-4.7 3.7,-6.4 4.7,-8.9 4.2,-4.5 3.6,-2.5 4.4,-2.4 4.1,-5.6 2.4,-7.5 10.2,-14.6 5.9,-3.7 -1.1,4.6 6.6,-4.1 -6,2.1 8.6,-8 10.5,-12.4 6.5,-5.7 11.6,-8.5 11.1,-6.5 -1.7,-1.4 2.3,-8.1 6.5,-13.1 l -9,11.6 -5.3,1.7 c -4.8,6.5 -9.1,10.6 -14.8,15.9 z"
   id="path1234"
   inkscape:connector-curvature="0"
   style="fill:#aa0000" />
					<path
   d="m 279.5,231.4 c -0.6,0.8 -1.1,1.6 -1.9,2.6 0.9,-0.9 1.5,-1.7 1.9,-2.6 z"
   id="path1236"
   inkscape:connector-curvature="0"
   style="fill:#aa0000" />
					<polygon
   points="329.3,181.3 327.2,184.2 329.4,183 "
   id="polygon1238"
   style="fill:#aa0000" />
					<path
   d="m 275.6,237.9 c 1.5,-1.4 1.4,-2.5 -0.1,-1.1 0,0 -0.3,0.8 -0.7,1.5 -0.4,0.8 -0.8,1.5 -0.8,1.5 0,0 0.4,-0.5 0.8,-1 0.4,-0.4 0.8,-0.9 0.8,-0.9 z"
   id="path1240"
   inkscape:connector-curvature="0"
   style="fill:#aa0000" />
					<path
   d="m 267,242.4 c 0,0 -0.3,0.1 -0.8,0.2 -0.5,0.1 -1.1,0.2 -1.8,0.4 -0.6,0.1 -1.3,0.3 -1.8,0.3 -0.5,0.1 -0.8,0.1 -0.8,0.1 0,0 -0.6,0.6 -1.2,1.2 -0.6,0.6 -1.3,1.1 -1.3,1.1 0,0 0.5,-0.2 1.2,-0.4 0.7,-0.3 1.7,-0.7 2.6,-1.1 1,-0.4 1.9,-0.9 2.6,-1.2 0.3,-0.2 0.6,-0.3 0.8,-0.4 0.4,-0.1 0.5,-0.2 0.5,-0.2 z"
   id="path1242"
   inkscape:connector-curvature="0"
   style="fill:#aa0000" />
					<path
   d="m 225.8,309.8 c -1.5,-0.5 -2.6,-0.8 -3.4,-0.9 -0.8,-0.1 -1.4,-0.1 -1.8,0 -0.9,0.3 -1.1,1 -1.8,1.5 1.2,0.3 2.1,0.6 2.8,0.7 0.7,0.1 1.1,0.2 1.4,0.2 0.6,0 0.6,-0.2 0.5,-0.5 -0.4,-0.5 -1,-1.3 2.3,-1 z"
   id="path1244"
   inkscape:connector-curvature="0"
   style="fill:#aa0000" />
					<path
   d="m 332.9,264.1 c -5.9,4.2 -9.2,9.9 -14.3,14.7 5.1,-3.7 10.8,-10 14.3,-14.7 z"
   id="path1246"
   inkscape:connector-curvature="0"
   style="fill:#aa0000" />
					<path
   d="m 366,222.6 c -0.8,1.6 -2.3,3.6 0.5,1 l -2.6,7 c 7.9,-6.5 3.3,-7.3 2.1,-8 z"
   id="path1248"
   inkscape:connector-curvature="0"
   style="fill:#aa0000" />
					<path
   d="m 407,179.5 c 0,0 -1.3,1.9 -2.6,3.7 -0.7,0.9 -1.4,1.9 -2,2.7 -0.5,0.7 -0.9,1.2 -0.9,1.2 0,0 0.9,-0.9 1.8,-1.8 0.4,-0.4 0.9,-0.9 1.2,-1.2 0.3,-0.3 0.5,-0.5 0.5,-0.5 -0.7,2.6 -1.6,4.3 -3.4,7.7 1.1,-1.4 2.2,-2.8 3.2,-4.2 0.5,-0.7 0.9,-1.3 1.3,-1.9 0.4,-0.6 0.7,-1.2 0.9,-1.7 1.1,-2.2 1.3,-3.7 0,-4 z"
   id="path1250"
   inkscape:connector-curvature="0"
   style="fill:#aa0000" />
					<path
   d="m 396,197.9 c 0.7,-0.8 1.5,-1.7 2.4,-2.7 -1,0.6 -1.8,0.7 -2.4,2.7 z"
   id="path1252"
   inkscape:connector-curvature="0"
   style="fill:#aa0000" />
					<path
   d="m 401,192.4 c 0.2,-0.5 0.4,-0.8 0.6,-1.2 -1.1,1.4 -2.2,2.7 -3.3,4 0.8,-0.3 1.7,-0.9 2.7,-2.8 z"
   id="path1254"
   inkscape:connector-curvature="0"
   style="fill:#aa0000" />
					<path
   d="m 412.5,175.3 c 0,0 0.6,-0.8 1.4,-2 0.8,-1.2 2,-2.8 2.9,-4.5 1,-1.7 2,-3.3 2.7,-4.6 0.7,-1.3 1.1,-2.1 1.1,-2.1 0,0 -0.8,1.2 -1.7,2.4 -0.4,0.6 -0.8,1.2 -1.2,1.6 -0.3,0.4 -0.6,0.7 -0.6,0.7 0.5,1 -0.7,2.4 -2,3.9 -1.3,1.5 -2.7,3 -2.6,4.6 z"
   id="path1256"
   inkscape:connector-curvature="0"
   style="fill:#aa0000" />
					<path
   d="m 431.2,98.2 1.5,-2 c -0.3,-2.6 -1.3,-5.2 -2.2,-7.8 l -0.7,-1.9 c -0.3,-0.6 -0.6,-1.3 -0.9,-1.9 -0.6,-1.2 -1.1,-2.5 -1.7,-3.7 -0.5,-1.2 -1.1,-2.3 -1.7,-3.4 -0.5,-1.1 -1,-2.2 -1.4,-3.2 -0.4,-1 -0.8,-2 -1,-2.9 -0.2,-0.9 -0.4,-1.8 -0.4,-2.7 0.4,2.3 -0.9,0.6 -1.8,-0.2 -0.9,-0.8 -1.3,-0.8 1,4.6 0.5,0.4 0.9,1.1 1.4,1.8 0.5,0.8 1,1.6 1.5,2.6 0.5,1 1.1,2 1.5,3.1 0.5,1.1 0.9,2.3 1.4,3.6 1,2.4 1.6,5.1 2.2,7.5 0.8,2.4 1,4.7 1.3,6.5 z"
   id="path1258"
   inkscape:connector-curvature="0"
   style="fill:#aa0000" />
					<path
   d="m 420.9,61.8 c 1.3,1.2 0.4,-1.2 0.2,-2.6 -1.9,-3.2 -4.8,-6.1 -4.4,-4 1.8,0.6 2.1,1.6 2.3,2.8 0.1,0.6 0.2,1.2 0.5,1.9 0.2,0.6 0.6,1.3 1.4,1.9 z"
   id="path1260"
   inkscape:connector-curvature="0"
   style="fill:#aa0000" />
					<path
   d="m 387.5,28.8 c 1.3,0.8 2.9,1.6 3.7,2 0.4,0.2 0.6,0.3 0.5,0.1 -0.1,-0.2 -0.5,-0.6 -1.4,-1.2 -3.9,-2.3 -5.6,-2.7 -7,-2.5 -1.3,0.1 -2.2,0.6 -4.4,0.2 1.5,1.1 3.1,1.9 4.5,2.5 1.4,0.7 2.6,1.1 3.6,1.3 1.9,0.2 2.7,-0.5 0.5,-2.4 z"
   id="path1262"
   inkscape:connector-curvature="0"
   style="fill:#aa0000" />
					<path
   d="m 317.5,0 c 1.3,1.3 9.4,0.6 11.3,0 -1.3,0.1 -3.2,0.3 -5.2,0.2 -1,0 -2.1,-0.1 -3.1,-0.1 -1.1,0 -2,0 -3,-0.1 z"
   id="path1264"
   inkscape:connector-curvature="0"
   style="fill:#aa0000" />
					<path
   d="m 317.6,13.5 h 2.6 c 0,0 0.7,-0.7 1.4,-1.4 0.7,-0.7 1.4,-1.3 1.4,-1.3 0,0 -1.4,0.6 -2.7,1.3 -1.4,0.7 -2.7,1.4 -2.7,1.4 z"
   id="path1266"
   inkscape:connector-curvature="0"
   style="fill:#aa0000" />
					<path
   d="m 269.7,36.6 c 0,0 -1.1,1.4 -2.1,2.8 -0.5,0.7 -1,1.4 -1.4,2 -0.4,0.5 -0.6,0.9 -0.6,0.9 0,0 0.5,-0.4 1.1,-1.1 0.7,-0.7 1.6,-1.5 2.6,-2.3 1.9,-1.6 3.8,-3.3 3.8,-3.3 0,0 -0.2,0.1 -0.5,0.2 -0.3,0.1 -0.7,0.2 -1.2,0.4 -0.8,0.2 -1.7,0.4 -1.7,0.4 z"
   id="path1268"
   inkscape:connector-curvature="0"
   style="fill:#aa0000" />
					<path
   d="m 261.7,43.2 c 0,0 -0.4,0.4 -1,1 -0.6,0.6 -1.4,1.4 -2.3,2.3 -1.7,1.7 -3.3,3.3 -3.3,3.3 l 2.8,-1.8 c 3.5,-2.9 1.6,-2.7 3.8,-4.8 z"
   id="path1270"
   inkscape:connector-curvature="0"
   style="fill:#aa0000" />
					<path
   d="m 241.9,63.1 c 0.7,-1 1.4,-1.3 2.1,-1.6 l 5.3,-6.7 z"
   id="path1272"
   inkscape:connector-curvature="0"
   style="fill:#aa0000" />
					<path
   d="m 254.7,129.6 c -1.3,0.3 0.1,1.1 2,2 1.9,0.9 4.4,2 5.4,2.7 0.3,-0.1 -0.5,-1.2 -1.9,-2.3 -1.4,-1.2 -3.4,-2.3 -5.5,-2.4 z"
   id="path1274"
   inkscape:connector-curvature="0"
   style="fill:#aa0000" />
				</g>
			</g>
		</g>
	</g>
</g>
</svg>