<?xml version="1.0" encoding="UTF-8" standalone="no"?>
<svg
   xmlns:dc="http://purl.org/dc/elements/1.1/"
   xmlns:cc="http://creativecommons.org/ns#"
   xmlns:rdf="http://www.w3.org/1999/02/22-rdf-syntax-ns#"
   xmlns:svg="http://www.w3.org/2000/svg"
   xmlns="http://www.w3.org/2000/svg"
   xmlns:sodipodi="http://sodipodi.sourceforge.net/DTD/sodipodi-0.dtd"
   xmlns:inkscape="http://www.inkscape.org/namespaces/inkscape"
   version="1.0"
   width="324"
   height="324"
   viewBox="0 0 242.99999 243"
   preserveAspectRatio="xMidYMid meet"
   id="svg1512"
   sodipodi:docname="github.svg"
   inkscape:version="0.92.4 (5da689c313, 2019-01-14)">
  <defs
     id="defs1516">
    <clipPath
       clipPathUnits="userSpaceOnUse"
       id="clipPath2083">
      <rect
         style="opacity:0.24789913;fill:#000000;fill-opacity:1;stroke-width:0.75"
         id="rect2085"
         width="4725"
         height="4725"
         x="205.13663"
         y="-4920.5488"
         ry="0"
         transform="scale(1,-1)" />
    </clipPath>
  </defs>
  <sodipodi:namedview
     pagecolor="#ffffff"
     bordercolor="#666666"
     borderopacity="1"
     objecttolerance="10"
     gridtolerance="10"
     guidetolerance="10"
     inkscape:pageopacity="0"
     inkscape:pageshadow="2"
     inkscape:window-width="3840"
     inkscape:window-height="2050"
     id="namedview1514"
     showgrid="false"
     inkscape:zoom="3.9111844"
     inkscape:cx="232.30003"
     inkscape:cy="172.0694"
     inkscape:window-x="-12"
     inkscape:window-y="-12"
     inkscape:window-maximized="1"
     inkscape:current-layer="svg1512"
     units="px"
     fit-margin-top="0.5"
     fit-margin-left="0"
     fit-margin-right="0"
     fit-margin-bottom="0.7" />
  <metadata
     id="metadata1506">
Created by potrace 1.10, written by Peter Selinger 2001-2011
<rdf:RDF>
  <cc:Work
     rdf:about="">
    <dc:format>image/svg+xml</dc:format>
    <dc:type
       rdf:resource="http://purl.org/dc/dcmitype/StillImage" />
    <dc:title></dc:title>
  </cc:Work>
</rdf:RDF>
</metadata>
  <g
     transform="matrix(0.051994,0,0,-0.051994,-12.089233,253.09056)"
     id="g1510"
     style="fill:#000000;stroke:none;stroke-width:0.96164942"
     clip-path="url(#clipPath2083)">
    <path
       d="M 2210,4819 C -112,4458 -503,1309 1647,288 c 186,-88 197,-82 189,104 l -6,138 -190,11 c -333,20 -504,134 -640,427 -78,169 -112,213 -266,338 -254,206 34,392 345,223 58,-32 163,-124 250,-220 130,-142 164,-168 241,-185 73,-16 267,-1 280,21 1,3 17,43 34,90 l 33,84 -136,41 c -597,178 -872,566 -870,1230 1,307 27,415 146,608 55,90 57,102 48,283 -29,579 144,692 670,438 193,-94 209,-98 290,-79 172,41 610,47 850,11 219,-33 227,-32 280,5 152,107 453,224 578,224 148,0 243,-250 221,-585 -11,-172 -10,-182 47,-274 123,-199 147,-302 147,-621 0,-706 -276,-1078 -920,-1239 l -82,-21 36,-105 c 31,-88 37,-172 37,-521 1,-488 -11,-468 223,-367 1235,534 1771,1982 1178,3183 -450,912 -1459,1443 -2450,1289 z"
       id="path1508"
       inkscape:connector-curvature="0"
       style="stroke-width:0.96164942" />
  </g>
</svg>
